<svg width="60" height="65" viewBox="0 0 60 65" fill="none" xmlns="http://www.w3.org/2000/svg">
<path fill-rule="evenodd" clip-rule="evenodd" d="M23.3908 58.5218C23.4081 58.919 23.3639 59.3066 23.2777 59.6989C23.1262 60.3883 22.8336 61.1178 22.4194 61.7918C21.242 63.7077 19.2418 64.9862 16.6667 64.9862C10.6003 64.9862 8.21945 62.0994 5.23841 54.8704C3.21945 49.9744 2.26699 48.8195 0 48.8195L0 42.3529C6.06634 42.3529 8.44721 45.2397 11.4283 52.4687C13.4472 57.3647 14.3997 58.5195 16.6667 58.5195C16.6667 57.5813 16.6534 56.7503 16.6255 55.6248C16.5602 52.9871 16.5527 52.4486 16.6713 51.7435C16.7187 50.2041 17.1284 49.1119 17.95 48.0278C10.5106 46.4569 5.49307 43.2127 2.61325 37.9506L1.53446 35.4897C0.483484 32.56 0 29.2404 0 25.4066C0 20.9913 1.38782 17.0435 3.98006 13.7435C3.17142 10.6067 3.28217 6.77421 5.0677 2.44601L5.65113 1.03173L7.14689 0.567625C7.34716 0.505488 7.59061 0.449367 7.87663 0.405823C10.7892 -0.0375951 14.9337 1.02036 20.3518 4.38679C23.5459 3.66859 26.9095 3.30598 30.2959 3.30598C33.3221 3.30598 36.3315 3.60191 39.2054 4.18534C44.4769 0.983258 48.5075 -0.0210392 51.3417 0.406392C51.6244 0.44903 51.8654 0.504076 52.064 0.565169L53.569 1.02813L54.1532 2.45104C55.7152 6.25583 55.9833 9.76227 55.4149 12.8305C58.3949 16.2989 60 20.563 60 25.4066C60 29.4901 59.6984 32.5607 58.8314 35.5479L57.9163 37.9838C55.5209 43.2402 50.2382 46.5208 42.0918 48.0834C42.9385 49.2206 43.3333 50.3751 43.3333 52.0529V55.2862C43.3333 56.8531 43.3333 56.9013 43.3297 58.5196C43.3372 58.6357 43.3472 58.6926 43.3581 58.7281C43.3555 58.729 43.3333 64.9862 43.3333 64.9862C40.494 64.9862 38.3829 63.6431 37.3446 61.5244C36.8063 60.4259 36.6454 59.377 36.6667 58.4736V52.0529C36.6667 51.7818 36.657 51.7661 35.9763 51.1059C34.157 49.3411 33.3333 48.0095 33.3333 45.5862V42.6613L36.3336 42.3691C45.2645 41.4991 50.1218 39.0933 51.7323 35.5787L52.4849 33.583C53.0837 31.4963 53.3333 28.955 53.3333 25.4066C53.3333 21.6363 51.9763 18.5217 49.41 16.0333L47.9994 14.6655L48.5751 12.8132C49.0866 11.1676 49.2081 9.22044 48.667 6.99949C48.5771 7.02159 48.4836 7.04568 48.3866 7.07187C46.6018 7.55386 44.3734 8.58809 41.6882 10.3292L40.4634 11.1233L39.0335 10.7793C36.268 10.1142 33.2962 9.77265 30.2959 9.77265C26.9595 9.77265 23.6615 10.1844 20.6149 10.9901L19.128 11.3833L17.8561 10.5392C15.0788 8.69627 12.7715 7.60028 10.9214 7.08831C10.7893 7.05174 10.6635 7.01904 10.5439 6.98988C9.89841 9.56032 10.1537 11.6722 10.8074 13.2568L11.5913 15.1569L10.1563 16.6572C7.86966 19.0479 6.66667 21.9571 6.66667 25.4066C6.66667 28.5648 7.04781 31.1818 7.74627 33.1531L8.61856 35.1559C10.7991 39.1249 15.4307 41.5127 23.6886 42.3713L26.6667 42.6809V45.5862C26.6667 48.0095 25.843 49.3411 24.0237 51.1059C23.343 51.7661 23.3333 51.7818 23.3333 52.0529L23.2759 52.6506C23.2379 52.8467 23.2379 53.3528 23.2903 55.4695C23.3144 56.443 23.3281 57.2135 23.3321 58.0187C23.3719 58.1854 23.378 58.2929 23.3908 58.5218Z" fill="black"/>
</svg>
