<svg width="700" height="519" viewBox="0 0 700 519" fill="none" xmlns="http://www.w3.org/2000/svg">
<g clip-path="url(#clip0)">
<path opacity="0.1" d="M308.52 19.5897C280.817 8.32736 251.549 -1.07469 221.671 0.106849C177.74 1.83517 135.607 28.2627 114.924 67.0587C97.3954 99.9282 95.2334 138.454 87.6854 174.931C78.3713 219.88 60.5602 262.579 41.5299 304.347C31.3108 326.784 20.5261 349.705 18.8544 374.303C16.5227 408.442 32.8443 442.468 58.4485 465.181C84.0528 487.895 118.041 499.88 152.161 502.494C170.318 503.883 189.292 502.595 205.425 494.142C222.482 485.205 234.925 469.047 252.051 460.235C267.927 452.065 286.498 450.915 304.322 451.983C327.665 453.385 350.667 458.274 372.562 466.489C397.475 475.847 420.641 489.39 445.497 498.88C470.354 508.37 498.126 513.656 523.536 505.743C547.38 498.309 566.272 480.252 583.241 461.964C611.163 431.938 636.629 399.719 659.394 365.618C674.735 342.641 689.014 318.394 695.802 291.608C708.767 240.4 690.918 182.623 651.331 147.686C618.549 118.695 574.53 106.125 531.442 98.4701C492.149 91.5129 446.717 91.0792 410.548 72.9413C376.057 55.6455 344.67 34.2961 308.52 19.5897Z" fill="#0070F3"/>
<path d="M587.018 362.582L588.068 363.638L588.539 361.822L588.036 360.031H586.742L587.018 362.582Z" fill="#464A5F"/>
<path opacity="0.1" d="M587.018 362.582L588.068 363.638L588.539 361.822L588.036 360.031H586.742L587.018 362.582Z" fill="black"/>
<path d="M587.018 362.582L588.036 363.67L587.018 364.864L585.925 364.455L585.655 363.927L587.018 362.582Z" fill="#9C9CA1"/>
<path opacity="0.1" d="M587.018 362.582L588.036 363.67L587.018 364.864L585.925 364.455L585.655 363.927L587.018 362.582Z" fill="black"/>
<path d="M393.56 171.663L278.624 286.599C276.557 288.666 275.394 291.466 275.388 294.389C275.382 297.311 276.534 300.117 278.592 302.192L454.767 479.768C456.828 481.843 459.626 483.017 462.55 483.032C465.474 483.047 468.285 481.903 470.366 479.85L587.018 364.87L393.56 171.663Z" fill="#9C9CA1"/>
<path opacity="0.1" d="M393.56 171.663L278.624 286.599C276.557 288.666 275.394 291.466 275.388 294.389C275.382 297.311 276.534 300.117 278.592 302.192L454.767 479.768C456.828 481.843 459.626 483.017 462.55 483.032C465.474 483.047 468.285 481.903 470.366 479.85L587.018 364.87L393.56 171.663Z" fill="black"/>
<path d="M393.56 169.381L278.624 284.318C276.557 286.384 275.394 289.185 275.388 292.107C275.382 295.03 276.534 297.835 278.592 299.91L454.767 477.481C456.827 479.556 459.625 480.731 462.549 480.748C465.473 480.764 468.284 479.621 470.366 477.569L587.018 362.557L393.56 169.381Z" fill="#9C9CA1"/>
<path d="M405.627 88.5904L395.081 168.621L588.539 361.822L599.651 280.471C599.902 278.652 599.724 276.798 599.13 275.06C598.536 273.321 597.544 271.746 596.232 270.46L409.574 87.2204C409.263 86.9184 408.874 86.7087 408.451 86.6148C408.028 86.5209 407.587 86.5465 407.178 86.6886C406.768 86.8307 406.406 87.0838 406.133 87.4196C405.859 87.7555 405.684 88.1608 405.627 88.5904Z" fill="#464A5F"/>
<path opacity="0.1" d="M405.627 88.5904L395.081 168.621L588.539 361.822L599.651 280.471C599.902 278.652 599.724 276.798 599.13 275.06C598.536 273.321 597.544 271.746 596.232 270.46L409.574 87.2204C409.263 86.9184 408.874 86.7087 408.451 86.6148C408.028 86.5209 407.587 86.5465 407.178 86.6886C406.768 86.8307 406.406 87.0838 406.133 87.4196C405.859 87.7555 405.684 88.1608 405.627 88.5904Z" fill="black"/>
<path d="M404.106 89.3509L393.56 169.381L587.018 362.582L598.13 281.232C598.381 279.412 598.203 277.559 597.609 275.82C597.016 274.082 596.023 272.506 594.711 271.22L408.053 87.9808C407.742 87.6788 407.353 87.4692 406.93 87.3753C406.507 87.2814 406.066 87.3069 405.657 87.449C405.247 87.5911 404.886 87.8442 404.612 88.1801C404.338 88.5159 404.163 88.9213 404.106 89.3509Z" fill="#464A5F"/>
<g opacity="0.1">
<path opacity="0.1" d="M394.075 206.16L387.08 213.218C386.873 213.424 386.709 213.669 386.598 213.938C386.486 214.208 386.428 214.497 386.428 214.789C386.428 215.081 386.486 215.37 386.598 215.64C386.709 215.909 386.873 216.154 387.08 216.36L394.17 223.632C394.578 224.056 395.139 224.301 395.728 224.313C396.317 224.325 396.887 224.102 397.312 223.695L404.276 217.121C404.699 216.721 404.948 216.17 404.969 215.588C404.99 215.006 404.782 214.439 404.389 214.01L397.299 206.254C397.098 206.029 396.854 205.847 396.58 205.719C396.306 205.592 396.009 205.521 395.708 205.512C395.406 205.504 395.105 205.556 394.825 205.668C394.544 205.779 394.289 205.947 394.075 206.16Z" fill="black"/>
<path opacity="0.1" d="M407.11 219.201L400.14 226.252C399.732 226.667 399.503 227.226 399.503 227.808C399.503 228.39 399.732 228.949 400.14 229.363L407.229 236.635C407.431 236.846 407.673 237.015 407.94 237.132C408.208 237.25 408.496 237.313 408.787 237.319C409.079 237.325 409.37 237.273 409.642 237.166C409.913 237.06 410.162 236.9 410.372 236.698L417.335 230.13C417.765 229.727 418.018 229.171 418.04 228.582C418.061 227.994 417.848 227.42 417.448 226.988L410.334 219.251C410.13 219.029 409.883 218.85 409.608 218.726C409.332 218.603 409.035 218.536 408.733 218.532C408.431 218.527 408.131 218.584 407.852 218.699C407.573 218.814 407.321 218.985 407.11 219.201Z" fill="black"/>
<path opacity="0.1" d="M420.798 232.883L413.828 239.941C413.422 240.356 413.194 240.915 413.194 241.496C413.194 242.078 413.422 242.636 413.828 243.052L420.924 250.323C421.332 250.748 421.893 250.993 422.482 251.004C423.071 251.016 423.641 250.794 424.066 250.386L431.03 243.812C431.453 243.412 431.702 242.862 431.724 242.28C431.745 241.698 431.536 241.131 431.143 240.701L424.054 232.946C423.85 232.717 423.602 232.534 423.324 232.406C423.046 232.278 422.745 232.209 422.44 232.203C422.134 232.197 421.83 232.254 421.548 232.371C421.265 232.488 421.01 232.663 420.798 232.883Z" fill="black"/>
<path opacity="0.1" d="M434.637 246.728L427.674 253.818C427.267 254.233 427.04 254.792 427.04 255.373C427.04 255.954 427.267 256.513 427.674 256.929L434.769 264.2C435.178 264.625 435.738 264.87 436.327 264.881C436.917 264.893 437.486 264.671 437.912 264.263L444.869 257.689C445.295 257.291 445.546 256.741 445.568 256.158C445.591 255.576 445.382 255.008 444.988 254.578L437.861 246.791C437.658 246.569 437.411 246.39 437.136 246.265C436.862 246.141 436.564 246.074 436.263 246.068C435.961 246.062 435.662 246.118 435.382 246.231C435.103 246.345 434.849 246.514 434.637 246.728Z" fill="black"/>
<path opacity="0.1" d="M448.483 260.574L441.519 267.644C441.103 268.061 440.869 268.626 440.869 269.215C440.869 269.804 441.103 270.369 441.519 270.787L448.615 278.058C449.023 278.482 449.584 278.727 450.173 278.739C450.762 278.751 451.332 278.529 451.757 278.121L458.714 271.547C459.14 271.149 459.392 270.599 459.414 270.016C459.436 269.433 459.228 268.866 458.834 268.436L451.744 260.681C451.544 260.449 451.297 260.262 451.021 260.13C450.744 259.998 450.443 259.925 450.137 259.915C449.831 259.905 449.526 259.958 449.241 260.072C448.956 260.185 448.698 260.356 448.483 260.574Z" fill="black"/>
<path opacity="0.1" d="M463.202 273.533L454.547 282.3C454.357 282.495 454.25 282.757 454.25 283.029C454.25 283.302 454.357 283.563 454.547 283.758L463.264 292.689C463.459 292.879 463.721 292.986 463.993 292.986C464.266 292.986 464.528 292.879 464.723 292.689L473.377 284.519C473.575 284.331 473.692 284.073 473.702 283.8C473.711 283.527 473.612 283.261 473.427 283.061L464.716 273.533C464.619 273.43 464.501 273.348 464.371 273.292C464.241 273.236 464.101 273.207 463.959 273.207C463.817 273.207 463.677 273.236 463.547 273.292C463.417 273.348 463.299 273.43 463.202 273.533Z" fill="black"/>
<path opacity="0.1" d="M477.047 287.378L468.393 296.177C468.203 296.371 468.096 296.631 468.096 296.903C468.096 297.174 468.203 297.435 468.393 297.629L477.11 306.566C477.305 306.756 477.566 306.863 477.839 306.863C478.111 306.863 478.373 306.756 478.568 306.566L487.222 298.396C487.421 298.208 487.538 297.95 487.547 297.677C487.556 297.404 487.458 297.138 487.272 296.937L478.562 287.41C478.466 287.305 478.351 287.22 478.222 287.162C478.092 287.103 477.953 287.071 477.811 287.068C477.669 287.065 477.528 287.091 477.397 287.145C477.266 287.198 477.147 287.277 477.047 287.378Z" fill="black"/>
<path opacity="0.1" d="M489.302 299.634L480.648 308.432C480.458 308.626 480.352 308.887 480.352 309.158C480.352 309.43 480.458 309.69 480.648 309.884L489.365 318.821C489.56 319.012 489.822 319.118 490.094 319.118C490.367 319.118 490.628 319.012 490.823 318.821L499.478 310.651C499.676 310.464 499.793 310.205 499.802 309.932C499.812 309.659 499.713 309.394 499.528 309.193L490.811 299.697C490.718 299.59 490.604 299.504 490.477 299.444C490.349 299.383 490.211 299.348 490.07 299.342C489.929 299.336 489.788 299.359 489.656 299.409C489.524 299.459 489.404 299.536 489.302 299.634Z" fill="black"/>
<path opacity="0.1" d="M503.028 313.36L494.374 322.121C494.182 322.315 494.075 322.577 494.075 322.85C494.075 323.123 494.182 323.385 494.374 323.579L503.091 332.509C503.285 332.701 503.547 332.809 503.82 332.809C504.093 332.809 504.355 332.701 504.549 332.509L513.203 324.339C513.401 324.151 513.516 323.893 513.526 323.62C513.535 323.348 513.438 323.083 513.254 322.881L504.543 313.353C504.445 313.251 504.327 313.169 504.197 313.114C504.066 313.059 503.926 313.03 503.784 313.031C503.643 313.031 503.502 313.061 503.372 313.117C503.242 313.174 503.125 313.256 503.028 313.36Z" fill="black"/>
<path opacity="0.1" d="M516.321 326.652L507.667 335.413C507.475 335.607 507.367 335.869 507.367 336.142C507.367 336.415 507.475 336.677 507.667 336.871L516.384 345.808C516.578 345.998 516.84 346.105 517.113 346.105C517.385 346.105 517.647 345.998 517.842 345.808L526.496 337.638C526.693 337.45 526.809 337.192 526.818 336.919C526.828 336.646 526.73 336.381 526.546 336.18L517.804 326.683C517.709 326.583 517.595 326.503 517.469 326.447C517.343 326.391 517.207 326.361 517.069 326.358C516.931 326.355 516.794 326.38 516.665 326.43C516.537 326.481 516.42 326.556 516.321 326.652Z" fill="black"/>
<path opacity="0.1" d="M529.613 339.919L520.946 348.718C520.756 348.912 520.65 349.172 520.65 349.444C520.65 349.715 520.756 349.976 520.946 350.17L529.663 359.107C529.858 359.297 530.12 359.404 530.392 359.404C530.665 359.404 530.926 359.297 531.121 359.107L539.776 350.936C539.974 350.749 540.091 350.491 540.1 350.218C540.11 349.945 540.011 349.679 539.826 349.478L531.115 339.951C531.02 339.848 530.905 339.765 530.777 339.707C530.649 339.65 530.511 339.619 530.371 339.616C530.23 339.613 530.091 339.638 529.961 339.69C529.831 339.742 529.712 339.82 529.613 339.919Z" fill="black"/>
<path opacity="0.1" d="M542.905 353.237L534.251 362.004C534.061 362.199 533.954 362.46 533.954 362.733C533.954 363.005 534.061 363.267 534.251 363.462L542.943 372.393C543.134 372.587 543.393 372.7 543.666 372.705C543.938 372.711 544.202 372.61 544.401 372.424L553.055 364.254C553.254 364.066 553.371 363.808 553.38 363.535C553.39 363.262 553.291 362.996 553.106 362.796L544.395 353.268C544.3 353.167 544.186 353.086 544.059 353.029C543.932 352.973 543.795 352.943 543.657 352.94C543.518 352.937 543.38 352.961 543.251 353.012C543.122 353.063 543.005 353.14 542.905 353.237Z" fill="black"/>
<path opacity="0.1" d="M381.424 218.818L374.46 225.869C374.254 226.075 374.09 226.32 373.978 226.59C373.866 226.859 373.808 227.148 373.808 227.44C373.808 227.732 373.866 228.021 373.978 228.291C374.09 228.561 374.254 228.805 374.46 229.012L381.556 236.283C381.758 236.494 381.999 236.663 382.267 236.78C382.534 236.898 382.822 236.961 383.114 236.967C383.406 236.973 383.696 236.921 383.968 236.814C384.24 236.708 384.488 236.549 384.698 236.346L391.656 229.778C392.088 229.377 392.343 228.821 392.366 228.232C392.388 227.643 392.176 227.069 391.775 226.636L384.642 218.874C384.438 218.653 384.191 218.475 383.917 218.352C383.642 218.229 383.346 218.163 383.045 218.158C382.744 218.152 382.445 218.208 382.167 218.321C381.888 218.435 381.635 218.604 381.424 218.818Z" fill="black"/>
<path opacity="0.1" d="M353.771 246.464L346.801 253.516C346.385 253.933 346.151 254.498 346.151 255.087C346.151 255.676 346.385 256.241 346.801 256.658L353.89 263.873C354.296 264.291 354.85 264.532 355.432 264.545C356.014 264.558 356.577 264.341 357.001 263.942L363.965 257.368C364.39 256.969 364.64 256.419 364.661 255.836C364.682 255.254 364.473 254.686 364.078 254.257L356.989 246.527C356.786 246.305 356.54 246.126 356.265 246.002C355.991 245.878 355.694 245.81 355.393 245.805C355.092 245.799 354.793 245.854 354.514 245.968C354.235 246.081 353.982 246.25 353.771 246.464Z" fill="black"/>
<path opacity="0.1" d="M394.459 231.852L387.489 238.904C387.282 239.11 387.118 239.355 387.006 239.624C386.894 239.894 386.836 240.183 386.836 240.475C386.836 240.767 386.894 241.056 387.006 241.326C387.118 241.595 387.282 241.84 387.489 242.046L394.578 249.318C394.986 249.743 395.546 249.989 396.135 250.002C396.724 250.015 397.294 249.794 397.72 249.387L404.678 242.781C405.108 242.379 405.361 241.822 405.382 241.234C405.403 240.645 405.191 240.072 404.791 239.639L397.702 231.89C397.497 231.664 397.248 231.483 396.971 231.359C396.693 231.234 396.393 231.167 396.088 231.164C395.784 231.16 395.482 231.22 395.202 231.338C394.921 231.456 394.668 231.632 394.459 231.852Z" fill="black"/>
<path opacity="0.1" d="M408.141 245.54L401.177 252.592C400.769 253.007 400.54 253.566 400.54 254.148C400.54 254.729 400.769 255.288 401.177 255.703L408.273 262.975C408.475 263.185 408.716 263.354 408.984 263.472C409.251 263.589 409.539 263.653 409.831 263.658C410.123 263.664 410.413 263.612 410.685 263.506C410.957 263.399 411.205 263.24 411.415 263.037L418.372 256.47C418.804 256.069 419.06 255.512 419.082 254.923C419.105 254.334 418.892 253.76 418.492 253.327L411.402 245.572C411.196 245.345 410.946 245.164 410.666 245.039C410.387 244.914 410.085 244.848 409.778 244.845C409.472 244.842 409.169 244.902 408.887 245.022C408.605 245.141 408.351 245.318 408.141 245.54Z" fill="black"/>
<path opacity="0.1" d="M421.986 259.38L415.022 266.437C414.614 266.852 414.386 267.411 414.386 267.993C414.386 268.575 414.614 269.133 415.022 269.548L422.118 276.82C422.524 277.238 423.078 277.479 423.66 277.491C424.243 277.502 424.807 277.284 425.229 276.883L432.192 270.315C432.625 269.914 432.88 269.358 432.903 268.769C432.925 268.179 432.712 267.605 432.312 267.173L425.21 259.474C425.008 259.25 424.763 259.069 424.489 258.943C424.216 258.816 423.919 258.746 423.618 258.738C423.317 258.729 423.017 258.781 422.736 258.892C422.456 259.002 422.201 259.168 421.986 259.38Z" fill="black"/>
<path opacity="0.1" d="M367.252 259.059L360.282 266.111C359.874 266.526 359.645 267.084 359.645 267.666C359.645 268.248 359.874 268.807 360.282 269.222L367.371 276.493C367.573 276.704 367.815 276.873 368.082 276.99C368.349 277.108 368.637 277.171 368.929 277.177C369.221 277.183 369.511 277.131 369.783 277.024C370.055 276.918 370.303 276.759 370.514 276.556L377.477 269.988C377.907 269.586 378.16 269.029 378.181 268.44C378.203 267.852 377.99 267.279 377.59 266.846L370.501 259.097C370.296 258.87 370.047 258.689 369.769 258.563C369.491 258.437 369.19 258.371 368.885 258.367C368.579 258.364 368.277 258.423 367.996 258.542C367.715 258.661 367.461 258.837 367.252 259.059Z" fill="black"/>
<path opacity="0.1" d="M380.934 272.741L373.97 279.799C373.763 280.005 373.599 280.25 373.488 280.519C373.376 280.789 373.318 281.078 373.318 281.37C373.318 281.662 373.376 281.951 373.488 282.221C373.599 282.49 373.763 282.735 373.97 282.941L381.066 290.213C381.268 290.424 381.509 290.593 381.777 290.71C382.044 290.827 382.332 290.891 382.624 290.897C382.916 290.902 383.206 290.851 383.478 290.744C383.75 290.637 383.998 290.478 384.208 290.276L391.165 283.708C391.598 283.307 391.853 282.751 391.875 282.162C391.898 281.572 391.685 280.998 391.285 280.566L384.196 272.81C383.992 272.581 383.744 272.397 383.466 272.268C383.188 272.14 382.886 272.07 382.58 272.064C382.274 272.057 381.969 272.114 381.686 272.231C381.403 272.347 381.147 272.521 380.934 272.741Z" fill="black"/>
<path opacity="0.1" d="M394.779 286.586L387.816 293.644C387.408 294.059 387.179 294.618 387.179 295.2C387.179 295.782 387.408 296.34 387.816 296.755L394.911 304.027C395.32 304.451 395.88 304.696 396.469 304.708C397.058 304.72 397.628 304.497 398.053 304.09L405.011 297.516C405.437 297.118 405.688 296.567 405.71 295.985C405.733 295.402 405.524 294.834 405.13 294.405L398.041 286.649C397.837 286.421 397.588 286.237 397.31 286.109C397.032 285.981 396.73 285.912 396.424 285.906C396.118 285.9 395.813 285.958 395.53 286.075C395.247 286.192 394.992 286.366 394.779 286.586Z" fill="black"/>
<path opacity="0.1" d="M435.831 273.225L428.868 280.283C428.46 280.698 428.231 281.256 428.231 281.838C428.231 282.42 428.46 282.979 428.868 283.394L435.963 290.665C436.165 290.876 436.407 291.045 436.674 291.163C436.942 291.28 437.23 291.343 437.522 291.349C437.813 291.355 438.104 291.303 438.376 291.197C438.647 291.09 438.896 290.931 439.106 290.728L446.069 284.161C446.284 283.962 446.457 283.723 446.578 283.457C446.7 283.192 446.768 282.905 446.779 282.613C446.789 282.321 446.742 282.03 446.64 281.756C446.537 281.482 446.382 281.232 446.182 281.018L439.049 273.3C438.847 273.077 438.602 272.897 438.328 272.772C438.054 272.647 437.758 272.578 437.456 272.571C437.155 272.564 436.856 272.619 436.577 272.731C436.297 272.843 436.044 273.011 435.831 273.225Z" fill="black"/>
<path opacity="0.1" d="M449.677 287.07L442.707 294.128C442.299 294.543 442.07 295.102 442.07 295.684C442.07 296.266 442.299 296.824 442.707 297.239L449.803 304.511C450.004 304.722 450.246 304.891 450.513 305.008C450.781 305.125 451.069 305.189 451.361 305.195C451.653 305.2 451.943 305.149 452.215 305.042C452.487 304.935 452.735 304.776 452.945 304.574L459.908 298C460.333 297.601 460.584 297.05 460.605 296.467C460.626 295.885 460.416 295.318 460.022 294.889L452.895 287.127C452.691 286.905 452.445 286.727 452.17 286.603C451.896 286.479 451.599 286.413 451.298 286.407C450.997 286.402 450.698 286.458 450.419 286.572C450.14 286.686 449.888 286.856 449.677 287.07Z" fill="black"/>
<path opacity="0.1" d="M464.383 300.03L455.729 308.828C455.537 309.022 455.43 309.284 455.43 309.557C455.43 309.83 455.537 310.092 455.729 310.286L464.452 319.179C464.646 319.371 464.908 319.479 465.181 319.479C465.454 319.479 465.716 319.371 465.91 319.179L474.565 311.009C474.762 310.821 474.878 310.563 474.887 310.29C474.896 310.018 474.799 309.753 474.615 309.551L465.904 300.023C465.806 299.92 465.688 299.838 465.557 299.782C465.426 299.725 465.285 299.697 465.142 299.697C465 299.698 464.859 299.728 464.728 299.785C464.598 299.842 464.48 299.925 464.383 300.03Z" fill="black"/>
<path opacity="0.1" d="M476.651 312.266L467.997 321.065C467.805 321.259 467.697 321.521 467.697 321.794C467.697 322.067 467.805 322.329 467.997 322.523L476.714 331.454C476.908 331.645 477.17 331.753 477.443 331.753C477.716 331.753 477.978 331.645 478.172 331.454L486.826 323.283C487.023 323.095 487.139 322.837 487.149 322.565C487.158 322.292 487.06 322.027 486.876 321.825L478.166 312.298C478.07 312.193 477.955 312.108 477.826 312.049C477.697 311.991 477.557 311.959 477.415 311.956C477.273 311.953 477.133 311.979 477.001 312.032C476.87 312.086 476.751 312.165 476.651 312.266V312.266Z" fill="black"/>
<path opacity="0.1" d="M490.377 326.011L481.717 334.81C481.527 335.003 481.42 335.264 481.42 335.536C481.42 335.807 481.527 336.068 481.717 336.261L490.427 345.198C490.622 345.389 490.884 345.495 491.156 345.495C491.429 345.495 491.691 345.389 491.885 345.198L500.54 337.028C500.739 336.842 500.857 336.584 500.868 336.311C500.878 336.038 500.781 335.772 500.596 335.57L491.885 326.042C491.79 325.938 491.675 325.855 491.546 325.797C491.418 325.739 491.279 325.707 491.138 325.704C490.997 325.701 490.857 325.727 490.726 325.78C490.595 325.832 490.477 325.911 490.377 326.011Z" fill="black"/>
<path opacity="0.1" d="M503.669 339.291L495.015 348.089C494.823 348.284 494.716 348.546 494.716 348.818C494.716 349.091 494.823 349.353 495.015 349.548L503.726 358.478C503.922 358.669 504.185 358.776 504.458 358.776C504.732 358.776 504.994 358.669 505.19 358.478L513.838 350.308C514.038 350.121 514.156 349.864 514.166 349.591C514.177 349.318 514.079 349.051 513.895 348.85L505.184 339.322C505.089 339.217 504.973 339.133 504.844 339.074C504.715 339.015 504.575 338.984 504.433 338.981C504.292 338.978 504.151 339.004 504.019 339.057C503.888 339.11 503.769 339.19 503.669 339.291Z" fill="black"/>
<path opacity="0.1" d="M394.986 258.695L388.017 265.759C387.609 266.174 387.38 266.732 387.38 267.314C387.38 267.896 387.609 268.455 388.017 268.87L395.112 276.141C395.314 276.353 395.555 276.522 395.823 276.64C396.09 276.758 396.378 276.822 396.67 276.828C396.962 276.833 397.253 276.781 397.525 276.674C397.797 276.567 398.045 276.407 398.255 276.204L405.218 269.636C405.649 269.234 405.904 268.678 405.925 268.089C405.946 267.499 405.733 266.926 405.331 266.494L398.204 258.757C398.002 258.534 397.756 258.355 397.481 258.23C397.207 258.105 396.91 258.038 396.609 258.032C396.308 258.026 396.008 258.082 395.729 258.196C395.45 258.31 395.197 258.479 394.986 258.695Z" fill="black"/>
<path opacity="0.1" d="M408.832 272.54L401.862 279.585C401.454 280 401.225 280.559 401.225 281.141C401.225 281.723 401.454 282.281 401.862 282.696L408.958 289.968C409.159 290.179 409.401 290.349 409.668 290.467C409.935 290.585 410.223 290.648 410.516 290.654C410.808 290.66 411.098 290.608 411.37 290.501C411.642 290.394 411.89 290.234 412.1 290.031L419.064 283.463C419.493 283.06 419.747 282.504 419.768 281.915C419.789 281.326 419.576 280.753 419.177 280.321L412.087 272.571C411.882 272.344 411.633 272.162 411.354 272.036C411.075 271.911 410.772 271.844 410.467 271.842C410.161 271.839 409.857 271.899 409.576 272.019C409.295 272.14 409.041 272.317 408.832 272.54Z" fill="black"/>
<path opacity="0.1" d="M422.677 286.385L415.707 293.412C415.299 293.827 415.071 294.385 415.071 294.967C415.071 295.549 415.299 296.108 415.707 296.523L422.797 303.794C422.999 304.005 423.24 304.174 423.508 304.291C423.775 304.409 424.063 304.472 424.355 304.478C424.647 304.484 424.937 304.432 425.209 304.325C425.481 304.219 425.729 304.06 425.939 303.857L432.903 297.289C433.333 296.887 433.586 296.33 433.607 295.742C433.628 295.153 433.416 294.58 433.016 294.147L425.926 286.392C425.719 286.168 425.468 285.989 425.189 285.867C424.91 285.745 424.608 285.681 424.303 285.681C423.998 285.68 423.697 285.742 423.417 285.864C423.137 285.985 422.885 286.162 422.677 286.385Z" fill="black"/>
<path opacity="0.1" d="M436.523 300.231L429.553 307.282C429.145 307.697 428.916 308.256 428.916 308.838C428.916 309.42 429.145 309.978 429.553 310.393L436.642 317.665C436.844 317.876 437.086 318.045 437.353 318.162C437.62 318.279 437.908 318.343 438.2 318.349C438.492 318.354 438.782 318.303 439.054 318.196C439.326 318.089 439.574 317.93 439.784 317.728L446.748 311.16C447.178 310.757 447.431 310.201 447.452 309.612C447.473 309.023 447.261 308.45 446.861 308.018L439.772 300.262C439.566 300.037 439.317 299.856 439.038 299.732C438.76 299.607 438.459 299.542 438.154 299.539C437.849 299.536 437.547 299.596 437.266 299.715C436.986 299.834 436.732 300.009 436.523 300.231Z" fill="black"/>
<path opacity="0.1" d="M451.242 313.19L442.581 321.951C442.391 322.146 442.284 322.408 442.284 322.68C442.284 322.952 442.391 323.214 442.581 323.409L451.292 332.34C451.486 332.532 451.748 332.639 452.021 332.639C452.294 332.639 452.556 332.532 452.75 332.34L461.404 324.169C461.604 323.983 461.722 323.725 461.732 323.452C461.743 323.179 461.645 322.913 461.461 322.711L452.75 313.177C452.652 313.075 452.535 312.995 452.404 312.94C452.274 312.885 452.134 312.857 451.993 312.858C451.852 312.86 451.712 312.89 451.583 312.947C451.454 313.004 451.338 313.086 451.242 313.19Z" fill="black"/>
<path opacity="0.1" d="M463.497 325.464L454.837 334.225C454.646 334.42 454.54 334.682 454.54 334.954C454.54 335.227 454.646 335.488 454.837 335.683L463.547 344.614C463.741 344.806 464.003 344.913 464.276 344.913C464.549 344.913 464.811 344.806 465.005 344.614L473.66 336.444C473.859 336.257 473.977 335.999 473.988 335.726C473.998 335.453 473.901 335.187 473.716 334.986L465.012 325.464C464.915 325.36 464.797 325.278 464.667 325.221C464.537 325.165 464.396 325.136 464.254 325.136C464.112 325.136 463.972 325.165 463.842 325.221C463.711 325.278 463.594 325.36 463.497 325.464Z" fill="black"/>
<path opacity="0.1" d="M477.217 339.165L468.563 347.964C468.372 348.159 468.266 348.42 468.266 348.693C468.266 348.965 468.372 349.227 468.563 349.422L477.273 358.352C477.463 358.549 477.723 358.662 477.996 358.668C478.269 358.674 478.533 358.572 478.731 358.384L487.385 350.214C487.585 350.027 487.703 349.769 487.714 349.496C487.724 349.223 487.627 348.957 487.442 348.756L478.725 339.228C478.632 339.122 478.518 339.036 478.391 338.975C478.264 338.914 478.125 338.88 477.984 338.874C477.843 338.868 477.703 338.891 477.571 338.941C477.439 338.991 477.318 339.067 477.217 339.165Z" fill="black"/>
<path opacity="0.1" d="M490.515 352.489L481.855 361.225C481.665 361.42 481.558 361.681 481.558 361.954C481.558 362.226 481.665 362.488 481.855 362.683L490.566 371.613C490.756 371.809 491.015 371.923 491.288 371.929C491.561 371.935 491.826 371.833 492.024 371.645L500.678 363.475C500.878 363.288 500.995 363.03 501.006 362.757C501.017 362.484 500.919 362.218 500.734 362.017L492.036 352.489C491.94 352.383 491.822 352.299 491.691 352.241C491.56 352.184 491.419 352.154 491.276 352.154C491.133 352.154 490.991 352.184 490.86 352.241C490.729 352.299 490.612 352.383 490.515 352.489Z" fill="black"/>
<path opacity="0.1" d="M516.962 352.596L508.308 361.394C508.116 361.588 508.008 361.85 508.008 362.123C508.008 362.396 508.116 362.658 508.308 362.852L517.025 371.783C517.214 371.979 517.474 372.093 517.747 372.098C518.02 372.104 518.284 372.002 518.483 371.815L527.137 363.644C527.334 363.456 527.45 363.198 527.459 362.925C527.469 362.653 527.371 362.388 527.187 362.186L518.476 352.658C518.383 352.551 518.269 352.464 518.141 352.403C518.013 352.342 517.874 352.307 517.733 352.301C517.591 352.295 517.449 352.318 517.317 352.369C517.184 352.419 517.063 352.497 516.962 352.596Z" fill="black"/>
<path opacity="0.1" d="M530.254 365.894L521.575 374.655C521.383 374.849 521.275 375.111 521.275 375.384C521.275 375.657 521.383 375.919 521.575 376.113L530.311 385.044C530.501 385.24 530.76 385.353 531.033 385.359C531.306 385.365 531.57 385.263 531.769 385.075L540.423 376.905C540.62 376.717 540.736 376.459 540.745 376.186C540.755 375.914 540.657 375.649 540.473 375.447L531.762 365.919C531.667 365.815 531.552 365.731 531.423 365.673C531.294 365.615 531.155 365.584 531.014 365.582C530.872 365.579 530.732 365.606 530.602 365.659C530.471 365.713 530.353 365.793 530.254 365.894Z" fill="black"/>
<path opacity="0.1" d="M462.913 353.475L454.742 361.727C454.486 361.988 454.343 362.339 454.343 362.705C454.343 363.07 454.486 363.421 454.742 363.682L462.969 372.116C463.225 372.377 463.573 372.527 463.939 372.535C464.304 372.542 464.658 372.405 464.924 372.154L473.094 364.468C473.351 364.219 473.504 363.881 473.52 363.523C473.537 363.166 473.416 362.816 473.182 362.544L464.955 353.545C464.829 353.401 464.674 353.284 464.501 353.202C464.328 353.12 464.14 353.074 463.949 353.068C463.757 353.061 463.567 353.094 463.388 353.164C463.21 353.234 463.048 353.34 462.913 353.475Z" fill="black"/>
<path opacity="0.1" d="M476.205 366.768L468.035 375.02C467.779 375.281 467.635 375.632 467.635 375.997C467.635 376.363 467.779 376.714 468.035 376.974L476.261 385.409C476.517 385.67 476.865 385.82 477.231 385.827C477.596 385.834 477.95 385.697 478.216 385.446L486.386 377.76C486.652 377.509 486.81 377.164 486.824 376.798C486.838 376.433 486.708 376.076 486.462 375.805L478.21 366.806C478.082 366.67 477.928 366.56 477.757 366.485C477.586 366.409 477.402 366.368 477.215 366.365C477.028 366.361 476.843 366.395 476.669 366.464C476.496 366.533 476.338 366.637 476.205 366.768Z" fill="black"/>
<path opacity="0.1" d="M489.522 380.06L481.352 388.312C481.096 388.573 480.953 388.924 480.953 389.289C480.953 389.655 481.096 390.006 481.352 390.267L489.579 398.701C489.834 398.963 490.182 399.114 490.547 399.122C490.913 399.131 491.267 398.995 491.533 398.745L499.704 391.052C499.971 390.802 500.13 390.457 500.144 390.091C500.158 389.724 500.027 389.368 499.779 389.098L491.552 380.104C491.425 379.962 491.271 379.848 491.098 379.768C490.925 379.689 490.737 379.645 490.547 379.641C490.357 379.637 490.167 379.672 489.991 379.744C489.815 379.816 489.655 379.924 489.522 380.06Z" fill="black"/>
<path opacity="0.1" d="M503.054 393.089L494.399 401.856C494.209 402.051 494.102 402.312 494.102 402.585C494.102 402.857 494.209 403.119 494.399 403.314L503.116 412.245C503.31 412.436 503.572 412.544 503.845 412.544C504.118 412.544 504.38 412.436 504.574 412.245L513.229 404.074C513.427 403.887 513.544 403.629 513.553 403.356C513.563 403.083 513.464 402.817 513.279 402.616L504.568 393.089C504.471 392.986 504.353 392.904 504.223 392.848C504.093 392.792 503.953 392.763 503.811 392.763C503.669 392.763 503.529 392.792 503.399 392.848C503.268 392.904 503.151 392.986 503.054 393.089Z" fill="black"/>
<path opacity="0.1" d="M367.723 231.783L360.294 239.363C360.088 239.569 359.924 239.813 359.812 240.083C359.7 240.353 359.642 240.642 359.642 240.934C359.642 241.226 359.7 241.515 359.812 241.784C359.924 242.054 360.088 242.299 360.294 242.505L381.034 263.037C381.444 263.441 381.994 263.671 382.57 263.678C383.145 263.685 383.701 263.469 384.12 263.075L391.863 255.791C392.08 255.586 392.254 255.34 392.375 255.067C392.495 254.794 392.559 254.499 392.563 254.201C392.567 253.902 392.511 253.606 392.399 253.33C392.286 253.053 392.119 252.802 391.907 252.592L370.853 231.764C370.435 231.353 369.871 231.124 369.284 231.128C368.698 231.131 368.136 231.367 367.723 231.783Z" fill="black"/>
<path opacity="0.1" d="M503.481 365.863L494.399 375.114C494.208 375.311 494.101 375.575 494.101 375.849C494.101 376.124 494.208 376.388 494.399 376.585L516.779 398.739C516.973 398.927 517.232 399.032 517.502 399.032C517.772 399.032 518.031 398.927 518.225 398.739L527.69 389.833C527.791 389.736 527.871 389.62 527.926 389.492C527.98 389.363 528.009 389.225 528.009 389.085C528.009 388.945 527.98 388.807 527.926 388.679C527.871 388.55 527.791 388.434 527.69 388.337L504.92 365.813C504.72 365.634 504.458 365.54 504.19 365.55C503.922 365.559 503.668 365.671 503.481 365.863Z" fill="black"/>
<path opacity="0.1" d="M409.077 299.583L400.41 308.168C400.314 308.264 400.237 308.378 400.184 308.504C400.132 308.63 400.105 308.764 400.105 308.901C400.105 309.037 400.132 309.172 400.184 309.297C400.237 309.423 400.314 309.537 400.41 309.633L448.671 359.1C448.866 359.291 449.128 359.397 449.4 359.397C449.673 359.397 449.934 359.291 450.129 359.1L459.556 350.207C459.656 350.111 459.735 349.995 459.79 349.867C459.844 349.739 459.872 349.602 459.872 349.463C459.872 349.324 459.844 349.186 459.79 349.058C459.735 348.93 459.656 348.815 459.556 348.718L410.535 299.565C410.338 299.377 410.075 299.273 409.802 299.277C409.53 299.28 409.269 299.39 409.077 299.583Z" fill="black"/>
</g>
<path d="M394.075 204.639L387.08 211.709C386.672 212.124 386.444 212.683 386.444 213.265C386.444 213.847 386.672 214.405 387.08 214.82L394.169 222.092C394.578 222.516 395.139 222.761 395.728 222.773C396.317 222.785 396.886 222.563 397.312 222.155L404.275 215.581C404.699 215.181 404.948 214.631 404.969 214.049C404.99 213.467 404.782 212.9 404.389 212.47L397.299 204.714C397.097 204.49 396.851 204.31 396.577 204.184C396.303 204.058 396.005 203.989 395.703 203.982C395.402 203.975 395.102 204.03 394.822 204.143C394.542 204.256 394.288 204.425 394.075 204.639Z" fill="#464A5F"/>
<path d="M407.11 217.68L400.14 224.732C399.732 225.146 399.503 225.705 399.503 226.287C399.503 226.869 399.732 227.428 400.14 227.843L407.229 235.114C407.431 235.325 407.673 235.494 407.94 235.611C408.208 235.729 408.496 235.792 408.787 235.798C409.079 235.804 409.37 235.752 409.642 235.645C409.913 235.539 410.162 235.38 410.372 235.177L417.335 228.609C417.765 228.206 418.018 227.65 418.04 227.061C418.061 226.473 417.848 225.899 417.448 225.467L410.334 217.737C410.131 217.514 409.884 217.334 409.609 217.21C409.334 217.086 409.036 217.019 408.734 217.014C408.432 217.009 408.133 217.065 407.853 217.179C407.574 217.294 407.321 217.464 407.11 217.68V217.68Z" fill="#464A5F"/>
<path d="M420.798 231.362L413.828 238.42C413.422 238.836 413.194 239.394 413.194 239.975C413.194 240.557 413.422 241.115 413.828 241.531L420.911 248.79C421.32 249.214 421.88 249.459 422.469 249.471C423.059 249.483 423.628 249.26 424.054 248.853L431.017 242.279C431.232 242.08 431.404 241.841 431.526 241.576C431.648 241.31 431.716 241.023 431.727 240.731C431.737 240.439 431.69 240.148 431.587 239.874C431.485 239.6 431.33 239.35 431.13 239.136L424.041 231.381C423.835 231.157 423.585 230.979 423.307 230.856C423.028 230.733 422.728 230.669 422.424 230.667C422.12 230.665 421.818 230.726 421.539 230.846C421.259 230.965 421.007 231.141 420.798 231.362Z" fill="#464A5F"/>
<path d="M434.637 245.207L427.674 252.259C427.259 252.677 427.027 253.242 427.027 253.83C427.027 254.419 427.259 254.983 427.674 255.401L434.769 262.673C435.178 263.097 435.738 263.342 436.327 263.354C436.917 263.366 437.486 263.143 437.912 262.736L444.869 256.162C445.295 255.764 445.546 255.213 445.568 254.631C445.591 254.048 445.382 253.48 444.988 253.051L437.861 245.27C437.658 245.048 437.411 244.869 437.136 244.744C436.862 244.62 436.564 244.553 436.263 244.547C435.961 244.541 435.662 244.597 435.382 244.71C435.103 244.824 434.849 244.993 434.637 245.207Z" fill="#464A5F"/>
<path d="M448.483 259.053L441.519 266.104C441.103 266.521 440.869 267.086 440.869 267.676C440.869 268.265 441.103 268.83 441.519 269.247L448.615 276.512C449.022 276.937 449.582 277.183 450.172 277.196C450.761 277.209 451.331 276.988 451.757 276.581L458.714 270.007C458.93 269.809 459.104 269.571 459.227 269.306C459.349 269.04 459.418 268.753 459.43 268.461C459.441 268.169 459.394 267.877 459.291 267.603C459.189 267.329 459.034 267.078 458.834 266.865L451.744 259.109C451.54 258.881 451.291 258.698 451.012 258.57C450.734 258.443 450.432 258.375 450.126 258.369C449.82 258.364 449.516 258.422 449.233 258.54C448.95 258.657 448.695 258.832 448.483 259.053Z" fill="#464A5F"/>
<path d="M463.202 272.043L454.547 280.779C454.357 280.973 454.251 281.234 454.251 281.505C454.251 281.777 454.357 282.037 454.547 282.231L463.264 291.168C463.455 291.363 463.715 291.475 463.987 291.481C464.26 291.487 464.524 291.386 464.723 291.199L473.377 283.029C473.575 282.842 473.692 282.584 473.702 282.311C473.711 282.037 473.612 281.772 473.427 281.571L464.71 272.043C464.613 271.941 464.496 271.86 464.366 271.805C464.236 271.75 464.097 271.721 463.956 271.721C463.815 271.721 463.675 271.75 463.546 271.805C463.416 271.86 463.299 271.942 463.202 272.043V272.043Z" fill="#464A5F"/>
<path d="M477.047 285.87L468.393 294.637C468.203 294.831 468.096 295.092 468.096 295.363C468.096 295.635 468.203 295.895 468.393 296.089L477.11 305.026C477.305 305.216 477.566 305.323 477.839 305.323C478.111 305.323 478.373 305.216 478.568 305.026L487.222 296.856C487.421 296.668 487.538 296.41 487.547 296.137C487.556 295.864 487.458 295.598 487.272 295.398L478.555 285.87C478.458 285.768 478.341 285.687 478.211 285.632C478.082 285.576 477.942 285.548 477.801 285.548C477.66 285.548 477.521 285.576 477.391 285.632C477.261 285.687 477.144 285.768 477.047 285.87V285.87Z" fill="#464A5F"/>
<path d="M489.302 298.113L480.648 306.88C480.458 307.074 480.352 307.334 480.352 307.606C480.352 307.877 480.458 308.138 480.648 308.332L489.359 317.294C489.554 317.484 489.816 317.591 490.088 317.591C490.36 317.591 490.622 317.484 490.817 317.294L499.471 309.124C499.67 308.936 499.787 308.678 499.796 308.405C499.806 308.132 499.707 307.866 499.521 307.666L490.811 298.138C490.715 298.034 490.599 297.951 490.471 297.894C490.342 297.836 490.203 297.805 490.062 297.803C489.921 297.8 489.781 297.827 489.65 297.88C489.52 297.933 489.401 298.012 489.302 298.113Z" fill="#464A5F"/>
<path d="M503.028 311.839L494.374 320.6C494.182 320.794 494.075 321.056 494.075 321.329C494.075 321.602 494.182 321.864 494.374 322.058L503.091 330.988C503.281 331.185 503.541 331.298 503.814 331.304C504.087 331.31 504.351 331.208 504.549 331.02L513.203 322.85C513.401 322.661 513.516 322.403 513.526 322.131C513.535 321.858 513.438 321.593 513.254 321.392L504.543 311.858C504.447 311.753 504.33 311.67 504.201 311.612C504.071 311.555 503.931 311.524 503.79 311.522C503.648 311.521 503.507 311.548 503.376 311.602C503.246 311.657 503.127 311.737 503.028 311.839Z" fill="#464A5F"/>
<path d="M516.321 325.131L507.667 333.892C507.475 334.086 507.367 334.348 507.367 334.621C507.367 334.894 507.475 335.156 507.667 335.35L516.377 344.319C516.572 344.509 516.834 344.616 517.106 344.616C517.379 344.616 517.64 344.509 517.835 344.319L526.489 336.148C526.687 335.96 526.802 335.702 526.812 335.43C526.821 335.157 526.723 334.892 526.54 334.69L517.804 325.163C517.709 325.062 517.595 324.982 517.469 324.926C517.343 324.87 517.207 324.84 517.069 324.837C516.931 324.834 516.794 324.859 516.665 324.909C516.537 324.96 516.42 325.035 516.321 325.131Z" fill="#464A5F"/>
<path d="M529.613 338.423L520.959 347.222C520.769 347.416 520.662 347.677 520.662 347.948C520.662 348.219 520.769 348.48 520.959 348.674L529.676 357.611C529.871 357.801 530.132 357.908 530.405 357.908C530.677 357.908 530.939 357.801 531.134 357.611L539.788 349.441C539.987 349.253 540.104 348.995 540.113 348.722C540.122 348.449 540.024 348.183 539.838 347.983L531.128 338.455C531.032 338.35 530.917 338.265 530.788 338.207C530.659 338.148 530.519 338.116 530.377 338.113C530.235 338.11 530.095 338.136 529.963 338.19C529.832 338.243 529.713 338.322 529.613 338.423Z" fill="#464A5F"/>
<path d="M542.905 351.716L534.251 360.514C534.061 360.709 533.954 360.971 533.954 361.244C533.954 361.516 534.061 361.778 534.251 361.973L542.943 370.872C543.138 371.062 543.4 371.169 543.672 371.169C543.945 371.169 544.206 371.062 544.401 370.872L553.055 362.702C553.254 362.514 553.371 362.256 553.38 361.983C553.39 361.71 553.291 361.444 553.106 361.244L544.395 351.716C544.298 351.617 544.182 351.538 544.054 351.484C543.926 351.431 543.789 351.403 543.65 351.403C543.511 351.403 543.374 351.431 543.246 351.484C543.118 351.538 543.002 351.617 542.905 351.716Z" fill="#464A5F"/>
<path d="M381.424 217.297L374.46 224.348C374.052 224.763 373.824 225.322 373.824 225.904C373.824 226.486 374.052 227.044 374.46 227.459L381.556 234.731C381.758 234.942 381.999 235.111 382.267 235.228C382.534 235.345 382.822 235.409 383.114 235.414C383.406 235.42 383.696 235.368 383.968 235.262C384.24 235.155 384.488 234.996 384.698 234.793L391.656 228.226C392.088 227.825 392.343 227.269 392.366 226.679C392.388 226.09 392.176 225.516 391.775 225.083L384.642 217.366C384.439 217.144 384.193 216.965 383.919 216.841C383.645 216.717 383.348 216.649 383.048 216.643C382.747 216.636 382.448 216.691 382.169 216.803C381.89 216.916 381.636 217.084 381.424 217.297Z" fill="#464A5F"/>
<path d="M353.771 244.943L346.801 251.995C346.385 252.412 346.151 252.977 346.151 253.566C346.151 254.155 346.385 254.72 346.801 255.137L353.897 262.403C354.302 262.82 354.856 263.061 355.438 263.074C356.02 263.087 356.584 262.871 357.007 262.472L363.971 255.898C364.402 255.496 364.657 254.939 364.678 254.35C364.699 253.761 364.486 253.187 364.084 252.755L356.989 245.019C356.787 244.795 356.542 244.614 356.268 244.488C355.994 244.363 355.697 244.294 355.396 244.287C355.095 244.28 354.795 244.335 354.516 244.447C354.236 244.56 353.983 244.729 353.771 244.943Z" fill="#464A5F"/>
<path d="M394.459 230.331L387.489 237.383C387.081 237.798 386.852 238.356 386.852 238.938C386.852 239.52 387.081 240.079 387.489 240.494L394.578 247.765C394.78 247.976 395.022 248.145 395.289 248.263C395.556 248.38 395.844 248.443 396.136 248.449C396.428 248.455 396.718 248.403 396.99 248.297C397.262 248.19 397.51 248.031 397.72 247.828L404.678 241.248C405.108 240.845 405.361 240.289 405.382 239.7C405.403 239.111 405.191 238.538 404.791 238.106L397.702 230.356C397.496 230.132 397.247 229.952 396.969 229.828C396.691 229.704 396.39 229.639 396.086 229.637C395.781 229.634 395.48 229.695 395.2 229.814C394.92 229.934 394.667 230.11 394.459 230.331Z" fill="#464A5F"/>
<path d="M408.141 244.013L401.177 251.071C400.769 251.486 400.54 252.045 400.54 252.627C400.54 253.209 400.769 253.767 401.177 254.182L408.273 261.454C408.475 261.664 408.716 261.833 408.984 261.951C409.251 262.068 409.539 262.132 409.831 262.137C410.123 262.143 410.413 262.091 410.685 261.985C410.957 261.878 411.205 261.719 411.415 261.516L418.372 254.949C418.804 254.548 419.06 253.992 419.082 253.402C419.105 252.813 418.892 252.239 418.492 251.806L411.365 244.076C411.161 243.854 410.914 243.676 410.639 243.552C410.364 243.429 410.067 243.362 409.766 243.356C409.465 243.35 409.165 243.405 408.886 243.518C408.607 243.631 408.353 243.8 408.141 244.013Z" fill="#464A5F"/>
<path d="M421.986 257.859L415.022 264.916C414.614 265.331 414.386 265.89 414.386 266.472C414.386 267.054 414.614 267.613 415.022 268.027L422.118 275.299C422.525 275.715 423.079 275.955 423.661 275.967C424.243 275.979 424.806 275.762 425.229 275.362L432.192 268.794C432.625 268.393 432.88 267.837 432.903 267.248C432.925 266.658 432.712 266.084 432.312 265.652L425.223 257.896C425.017 257.673 424.768 257.495 424.492 257.372C424.215 257.248 423.915 257.183 423.612 257.179C423.309 257.176 423.009 257.234 422.729 257.351C422.449 257.468 422.196 257.641 421.986 257.859Z" fill="#464A5F"/>
<path d="M367.252 257.538L360.282 264.59C359.874 265.005 359.645 265.563 359.645 266.145C359.645 266.727 359.874 267.286 360.282 267.701L367.371 274.972C367.573 275.183 367.815 275.352 368.082 275.469C368.349 275.587 368.637 275.65 368.929 275.656C369.221 275.662 369.511 275.61 369.783 275.503C370.055 275.397 370.303 275.238 370.514 275.035L377.477 268.467C377.907 268.065 378.16 267.508 378.181 266.92C378.203 266.331 377.99 265.758 377.59 265.325L370.47 257.588C370.266 257.366 370.02 257.188 369.745 257.064C369.47 256.94 369.173 256.874 368.871 256.869C368.57 256.865 368.271 256.922 367.993 257.037C367.714 257.152 367.462 257.322 367.252 257.538Z" fill="#464A5F"/>
<path d="M380.934 271.22L373.97 278.278C373.562 278.693 373.333 279.251 373.333 279.833C373.333 280.415 373.562 280.974 373.97 281.389L381.066 288.66C381.474 289.085 382.035 289.33 382.624 289.342C383.213 289.353 383.783 289.131 384.208 288.723L391.165 282.156C391.598 281.755 391.853 281.198 391.875 280.609C391.898 280.02 391.685 279.446 391.285 279.013L384.196 271.258C383.99 271.031 383.74 270.849 383.46 270.723C383.181 270.598 382.879 270.531 382.573 270.527C382.267 270.524 381.963 270.583 381.681 270.703C381.399 270.822 381.145 270.998 380.934 271.22Z" fill="#464A5F"/>
<path d="M394.779 285.066L387.816 292.155C387.408 292.57 387.179 293.128 387.179 293.71C387.179 294.292 387.408 294.851 387.816 295.266L394.911 302.537C395.32 302.962 395.88 303.207 396.469 303.218C397.058 303.23 397.628 303.008 398.053 302.6L405.011 296.026C405.437 295.628 405.688 295.078 405.71 294.495C405.733 293.913 405.524 293.345 405.13 292.915L398.041 285.16C397.839 284.929 397.592 284.743 397.315 284.612C397.038 284.482 396.737 284.41 396.431 284.401C396.124 284.392 395.82 284.446 395.535 284.561C395.251 284.675 394.994 284.847 394.779 285.066Z" fill="#464A5F"/>
<path d="M435.831 271.704L428.868 278.762C428.46 279.177 428.231 279.735 428.231 280.317C428.231 280.899 428.46 281.458 428.868 281.873L435.963 289.144C436.165 289.355 436.407 289.524 436.674 289.642C436.942 289.759 437.23 289.822 437.522 289.828C437.814 289.834 438.104 289.782 438.376 289.676C438.647 289.569 438.896 289.41 439.106 289.207L446.069 282.633C446.284 282.435 446.458 282.196 446.58 281.931C446.703 281.665 446.771 281.378 446.781 281.086C446.792 280.793 446.744 280.502 446.642 280.228C446.539 279.955 446.383 279.704 446.183 279.491L439.093 271.735C438.888 271.508 438.637 271.326 438.358 271.2C438.078 271.075 437.776 271.008 437.469 271.005C437.163 271.002 436.859 271.063 436.577 271.183C436.295 271.303 436.041 271.481 435.831 271.704Z" fill="#464A5F"/>
<path d="M449.677 285.549L442.707 292.607C442.299 293.022 442.07 293.581 442.07 294.163C442.07 294.745 442.299 295.303 442.707 295.718L449.803 302.99C450.004 303.201 450.246 303.37 450.513 303.487C450.781 303.604 451.069 303.668 451.361 303.674C451.653 303.679 451.943 303.628 452.215 303.521C452.487 303.414 452.735 303.255 452.945 303.053L459.908 296.479C460.333 296.08 460.584 295.529 460.605 294.946C460.626 294.364 460.416 293.797 460.022 293.368L452.932 285.612C452.729 285.384 452.481 285.2 452.203 285.072C451.925 284.944 451.624 284.875 451.318 284.87C451.013 284.864 450.709 284.921 450.427 285.038C450.144 285.155 449.889 285.329 449.677 285.549Z" fill="#464A5F"/>
<path d="M464.383 298.509L455.729 307.276C455.537 307.47 455.43 307.732 455.43 308.005C455.43 308.278 455.537 308.54 455.729 308.734L464.446 317.665C464.64 317.857 464.902 317.964 465.175 317.964C465.448 317.964 465.71 317.857 465.904 317.665L474.558 309.495C474.756 309.306 474.871 309.048 474.881 308.776C474.89 308.503 474.792 308.238 474.608 308.036L465.898 298.509C465.8 298.406 465.683 298.324 465.553 298.268C465.422 298.212 465.282 298.183 465.14 298.183C464.999 298.183 464.859 298.212 464.728 298.268C464.598 298.324 464.481 298.406 464.383 298.509Z" fill="#464A5F"/>
<path d="M476.651 310.764L467.997 319.531C467.805 319.725 467.697 319.987 467.697 320.26C467.697 320.533 467.805 320.795 467.997 320.989L476.714 329.92C476.908 330.112 477.17 330.22 477.443 330.22C477.716 330.22 477.978 330.112 478.172 329.92L486.826 321.75C487.023 321.562 487.139 321.304 487.149 321.031C487.158 320.759 487.06 320.493 486.876 320.292L478.166 310.764C478.068 310.661 477.951 310.579 477.821 310.523C477.69 310.467 477.55 310.438 477.408 310.438C477.267 310.438 477.126 310.467 476.996 310.523C476.866 310.579 476.749 310.661 476.651 310.764Z" fill="#464A5F"/>
<path d="M490.377 324.49L481.717 333.257C481.527 333.451 481.42 333.712 481.42 333.983C481.42 334.255 481.527 334.515 481.717 334.709L490.427 343.646C490.622 343.837 490.884 343.943 491.156 343.943C491.429 343.943 491.691 343.837 491.885 343.646L500.54 335.476C500.739 335.289 500.857 335.031 500.868 334.758C500.878 334.485 500.781 334.219 500.596 334.018L491.885 324.521C491.79 324.418 491.675 324.334 491.546 324.276C491.418 324.218 491.279 324.186 491.138 324.183C490.997 324.18 490.857 324.206 490.726 324.259C490.595 324.311 490.477 324.39 490.377 324.49Z" fill="#464A5F"/>
<path d="M503.669 337.782L495.015 346.55C494.823 346.744 494.716 347.006 494.716 347.279C494.716 347.552 494.823 347.814 495.015 348.008L503.726 356.938C503.922 357.129 504.185 357.236 504.458 357.236C504.732 357.236 504.994 357.129 505.19 356.938L513.838 348.768C514.038 348.582 514.156 348.324 514.166 348.051C514.177 347.778 514.079 347.512 513.895 347.31L505.184 337.782C505.086 337.679 504.969 337.598 504.839 337.542C504.709 337.486 504.568 337.457 504.427 337.457C504.285 337.457 504.145 337.486 504.014 337.542C503.884 337.598 503.767 337.679 503.669 337.782Z" fill="#464A5F"/>
<path d="M394.986 257.174L388.017 264.225C387.609 264.64 387.38 265.199 387.38 265.781C387.38 266.363 387.609 266.921 388.017 267.336L395.112 274.608C395.314 274.819 395.555 274.989 395.823 275.107C396.09 275.225 396.378 275.288 396.67 275.294C396.962 275.3 397.253 275.248 397.525 275.141C397.797 275.034 398.045 274.874 398.255 274.67L405.218 268.103C405.649 267.701 405.904 267.144 405.925 266.555C405.946 265.966 405.733 265.392 405.331 264.96L398.204 257.236C398.002 257.013 397.756 256.834 397.481 256.709C397.207 256.584 396.91 256.517 396.609 256.511C396.308 256.505 396.008 256.561 395.729 256.675C395.45 256.789 395.197 256.958 394.986 257.174Z" fill="#464A5F"/>
<path d="M408.832 271.019L401.862 278.071C401.655 278.277 401.491 278.521 401.379 278.791C401.267 279.061 401.21 279.35 401.21 279.642C401.21 279.934 401.267 280.223 401.379 280.492C401.491 280.762 401.655 281.007 401.862 281.213L408.958 288.484C409.159 288.696 409.401 288.866 409.668 288.984C409.935 289.101 410.224 289.165 410.516 289.171C410.808 289.177 411.098 289.125 411.37 289.018C411.642 288.911 411.89 288.751 412.1 288.547L419.064 281.98C419.493 281.577 419.747 281.02 419.768 280.432C419.789 279.843 419.577 279.27 419.177 278.837L412.087 271.088C411.885 270.859 411.637 270.673 411.36 270.545C411.082 270.416 410.781 270.346 410.475 270.339C410.169 270.333 409.865 270.39 409.582 270.507C409.299 270.624 409.044 270.798 408.832 271.019Z" fill="#464A5F"/>
<path d="M422.677 284.864L415.707 291.916C415.299 292.331 415.071 292.89 415.071 293.471C415.071 294.053 415.299 294.612 415.707 295.027L422.797 302.298C422.999 302.509 423.24 302.678 423.508 302.796C423.775 302.913 424.063 302.976 424.355 302.982C424.647 302.988 424.937 302.936 425.209 302.83C425.481 302.723 425.729 302.564 425.939 302.361L432.903 295.794C433.333 295.391 433.586 294.834 433.607 294.246C433.628 293.657 433.416 293.084 433.016 292.651L425.926 284.896C425.721 284.671 425.471 284.49 425.193 284.366C424.915 284.241 424.614 284.175 424.309 284.172C424.004 284.169 423.702 284.229 423.421 284.348C423.14 284.467 422.887 284.643 422.677 284.864Z" fill="#464A5F"/>
<path d="M436.523 298.704L429.553 305.761C429.346 305.967 429.182 306.212 429.07 306.482C428.958 306.752 428.901 307.041 428.901 307.333C428.901 307.624 428.958 307.914 429.07 308.183C429.182 308.453 429.346 308.698 429.553 308.904L436.642 316.175C436.844 316.386 437.086 316.555 437.353 316.673C437.62 316.79 437.908 316.853 438.2 316.859C438.492 316.865 438.782 316.813 439.054 316.707C439.326 316.6 439.574 316.441 439.784 316.238L446.748 309.67C447.178 309.268 447.431 308.711 447.452 308.123C447.473 307.534 447.261 306.961 446.861 306.528L439.772 298.773C439.569 298.546 439.321 298.363 439.044 298.236C438.767 298.109 438.467 298.04 438.162 298.033C437.858 298.027 437.555 298.083 437.273 298.198C436.991 298.313 436.736 298.485 436.523 298.704Z" fill="#464A5F"/>
<path d="M451.242 311.669L442.581 320.436C442.391 320.631 442.284 320.893 442.284 321.165C442.284 321.438 442.391 321.699 442.581 321.894L451.292 330.825C451.482 331.021 451.742 331.135 452.015 331.14C452.288 331.146 452.552 331.044 452.75 330.857L461.404 322.686C461.604 322.499 461.722 322.24 461.733 321.966C461.743 321.692 461.646 321.424 461.461 321.222L452.75 311.694C452.655 311.59 452.539 311.506 452.411 311.448C452.282 311.39 452.142 311.359 452.001 311.356C451.86 311.354 451.72 311.38 451.589 311.434C451.459 311.488 451.34 311.568 451.242 311.669Z" fill="#464A5F"/>
<path d="M463.497 323.924L454.837 332.685C454.646 332.88 454.54 333.142 454.54 333.414C454.54 333.687 454.646 333.949 454.837 334.144L463.547 343.062C463.737 343.258 463.997 343.371 464.27 343.377C464.543 343.383 464.807 343.281 465.005 343.093L473.66 334.923C473.86 334.735 473.978 334.476 473.988 334.202C473.999 333.928 473.901 333.661 473.716 333.458L465.012 323.95C464.916 323.844 464.8 323.76 464.671 323.701C464.542 323.642 464.402 323.611 464.26 323.608C464.118 323.606 463.977 323.633 463.846 323.687C463.714 323.742 463.596 323.822 463.497 323.924Z" fill="#464A5F"/>
<path d="M477.217 337.644L468.563 346.443C468.372 346.638 468.266 346.899 468.266 347.172C468.266 347.444 468.372 347.706 468.563 347.901L477.273 356.832C477.467 357.023 477.729 357.131 478.002 357.131C478.275 357.131 478.537 357.023 478.731 356.832L487.385 348.661C487.585 348.475 487.703 348.217 487.714 347.944C487.724 347.671 487.627 347.405 487.442 347.203L478.725 337.676C478.63 337.572 478.514 337.488 478.386 337.43C478.258 337.372 478.119 337.34 477.978 337.337C477.837 337.334 477.697 337.36 477.566 337.413C477.435 337.465 477.316 337.544 477.217 337.644Z" fill="#464A5F"/>
<path d="M490.515 350.943L481.855 359.704C481.665 359.899 481.558 360.16 481.558 360.433C481.558 360.705 481.665 360.967 481.855 361.162L490.566 370.086C490.76 370.278 491.022 370.386 491.295 370.386C491.568 370.386 491.83 370.278 492.024 370.086L500.678 361.916C500.878 361.729 500.995 361.472 501.006 361.199C501.017 360.926 500.919 360.659 500.734 360.458L492.036 350.968C491.941 350.861 491.825 350.774 491.695 350.715C491.565 350.655 491.424 350.623 491.281 350.62C491.138 350.618 490.996 350.645 490.864 350.701C490.733 350.756 490.614 350.839 490.515 350.943Z" fill="#464A5F"/>
<path d="M516.962 351.075L508.308 359.873C508.116 360.068 508.008 360.33 508.008 360.602C508.008 360.875 508.116 361.137 508.308 361.331L517.025 370.262C517.219 370.454 517.481 370.562 517.754 370.562C518.027 370.562 518.288 370.454 518.483 370.262L527.137 362.092C527.334 361.904 527.45 361.646 527.459 361.373C527.469 361.101 527.371 360.835 527.187 360.634L518.47 351.106C518.375 351.002 518.259 350.919 518.131 350.86C518.002 350.802 517.864 350.771 517.723 350.768C517.582 350.765 517.442 350.791 517.311 350.843C517.18 350.896 517.061 350.975 516.962 351.075Z" fill="#464A5F"/>
<path d="M530.254 364.367L521.6 373.166C521.408 373.36 521.3 373.622 521.3 373.895C521.3 374.168 521.408 374.43 521.6 374.624L530.317 383.554C530.511 383.746 530.773 383.854 531.046 383.854C531.319 383.854 531.581 383.746 531.775 383.554L540.429 375.384C540.626 375.196 540.742 374.938 540.752 374.666C540.761 374.393 540.663 374.128 540.479 373.926L531.762 364.43C531.669 364.324 531.556 364.238 531.428 364.177C531.301 364.116 531.163 364.082 531.022 364.076C530.881 364.07 530.74 364.093 530.608 364.143C530.476 364.193 530.356 364.269 530.254 364.367Z" fill="#464A5F"/>
<path d="M462.913 351.955L454.742 360.207C454.486 360.467 454.343 360.818 454.343 361.184C454.343 361.549 454.486 361.9 454.742 362.161L462.969 370.595C463.225 370.856 463.573 371.007 463.939 371.014C464.304 371.021 464.658 370.884 464.924 370.633L473.094 362.947C473.359 362.695 473.515 362.35 473.529 361.985C473.543 361.62 473.414 361.263 473.169 360.992L464.943 351.992C464.814 351.852 464.659 351.74 464.486 351.662C464.313 351.584 464.125 351.542 463.936 351.538C463.746 351.535 463.557 351.57 463.381 351.641C463.205 351.713 463.046 351.82 462.913 351.955Z" fill="#464A5F"/>
<path d="M476.205 365.247L468.035 373.499C467.779 373.76 467.635 374.111 467.635 374.476C467.635 374.842 467.779 375.193 468.035 375.453L476.28 383.913C476.54 384.161 476.885 384.3 477.245 384.3C477.604 384.3 477.95 384.161 478.21 383.913L486.38 376.227C486.646 375.976 486.803 375.63 486.818 375.265C486.832 374.899 486.702 374.543 486.455 374.272L478.21 365.285C478.082 365.149 477.928 365.039 477.757 364.964C477.586 364.888 477.402 364.847 477.215 364.844C477.028 364.84 476.843 364.874 476.669 364.943C476.496 365.013 476.338 365.116 476.205 365.247Z" fill="#464A5F"/>
<path d="M489.522 378.539L481.352 386.791C481.096 387.052 480.953 387.403 480.953 387.769C480.953 388.134 481.096 388.485 481.352 388.746L489.579 397.18C489.834 397.443 490.182 397.594 490.548 397.601C490.914 397.608 491.268 397.47 491.533 397.218L499.704 389.531C499.971 389.281 500.13 388.936 500.144 388.57C500.158 388.204 500.027 387.847 499.779 387.577L491.552 378.577C491.424 378.436 491.269 378.323 491.096 378.245C490.923 378.166 490.736 378.124 490.545 378.12C490.355 378.117 490.167 378.152 489.991 378.224C489.815 378.296 489.655 378.403 489.522 378.539Z" fill="#464A5F"/>
<path d="M503.054 391.568L494.399 400.366C494.209 400.561 494.102 400.823 494.102 401.095C494.102 401.368 494.209 401.63 494.399 401.824L503.116 410.755C503.307 410.95 503.567 411.062 503.839 411.068C504.111 411.074 504.375 410.973 504.574 410.787L513.229 402.616C513.427 402.429 513.544 402.171 513.553 401.898C513.563 401.625 513.464 401.359 513.279 401.158L504.568 391.631C504.475 391.523 504.361 391.437 504.233 391.375C504.105 391.314 503.966 391.279 503.824 391.273C503.683 391.267 503.541 391.29 503.409 391.341C503.276 391.392 503.155 391.469 503.054 391.568Z" fill="#464A5F"/>
<path d="M367.723 230.262L360.294 237.848C360.088 238.054 359.924 238.299 359.812 238.568C359.7 238.838 359.642 239.127 359.642 239.419C359.642 239.711 359.7 240 359.812 240.27C359.924 240.539 360.088 240.784 360.294 240.99L381.034 261.523C381.444 261.927 381.994 262.157 382.57 262.164C383.145 262.171 383.701 261.954 384.12 261.56L391.863 254.276C392.08 254.072 392.254 253.826 392.375 253.552C392.495 253.279 392.559 252.985 392.563 252.686C392.567 252.388 392.511 252.091 392.399 251.815C392.286 251.539 392.119 251.288 391.907 251.077L370.853 230.25C370.435 229.838 369.872 229.608 369.285 229.61C368.699 229.612 368.137 229.847 367.723 230.262Z" fill="#464A5F"/>
<path d="M503.481 364.342L494.399 373.612C494.208 373.809 494.101 374.073 494.101 374.347C494.101 374.622 494.208 374.886 494.399 375.083L516.779 397.237C516.973 397.425 517.232 397.53 517.502 397.53C517.772 397.53 518.031 397.425 518.225 397.237L527.69 388.331C527.791 388.234 527.871 388.118 527.926 387.99C527.98 387.861 528.009 387.723 528.009 387.583C528.009 387.443 527.98 387.305 527.926 387.177C527.871 387.048 527.791 386.932 527.69 386.835L504.92 364.311C504.723 364.128 504.463 364.03 504.194 364.036C503.926 364.042 503.67 364.151 503.481 364.342Z" fill="#464A5F"/>
<path d="M409.077 298.062L400.41 306.647C400.314 306.743 400.237 306.857 400.184 306.983C400.132 307.109 400.105 307.243 400.105 307.38C400.105 307.516 400.132 307.651 400.184 307.776C400.237 307.902 400.314 308.016 400.41 308.112L448.671 357.579C448.866 357.77 449.128 357.876 449.4 357.876C449.673 357.876 449.934 357.77 450.129 357.579L459.556 348.686C459.656 348.59 459.735 348.474 459.79 348.346C459.844 348.218 459.872 348.081 459.872 347.942C459.872 347.803 459.844 347.665 459.79 347.537C459.735 347.409 459.656 347.294 459.556 347.197L410.535 298.044C410.338 297.856 410.075 297.752 409.802 297.756C409.53 297.76 409.269 297.87 409.077 298.062Z" fill="#464A5F"/>
<path opacity="0.1" d="M375.032 304.096L336.928 341.949C335.871 343 335.272 344.425 335.261 345.915C335.249 347.404 335.825 348.838 336.865 349.906L407.342 422.281C407.862 422.815 408.482 423.242 409.167 423.535C409.852 423.829 410.589 423.984 411.334 423.992C412.079 424 412.819 423.861 413.51 423.583C414.201 423.304 414.83 422.892 415.362 422.369L454.598 383.774C455.129 383.251 455.552 382.627 455.841 381.94C456.13 381.252 456.281 380.514 456.284 379.768C456.286 379.022 456.142 378.283 455.858 377.593C455.574 376.903 455.156 376.277 454.629 375.749L383.02 304.096C381.96 303.039 380.524 302.445 379.026 302.445C377.529 302.445 376.093 303.039 375.032 304.096Z" fill="black"/>
<path d="M375.032 302.544L336.928 340.428C335.871 341.479 335.272 342.904 335.261 344.394C335.249 345.883 335.825 347.318 336.865 348.385L407.342 420.76C407.862 421.295 408.482 421.721 409.167 422.014C409.852 422.308 410.589 422.463 411.334 422.471C412.079 422.48 412.819 422.34 413.51 422.062C414.201 421.783 414.83 421.371 415.362 420.848L454.598 382.254C455.129 381.73 455.552 381.106 455.841 380.419C456.13 379.731 456.281 378.993 456.284 378.247C456.286 377.501 456.142 376.762 455.858 376.072C455.574 375.383 455.156 374.756 454.629 374.228L383.02 302.581C381.965 301.519 380.531 300.918 379.034 300.911C377.537 300.904 376.098 301.491 375.032 302.544Z" fill="#939498"/>
<path d="M411.635 103.9L401.988 171.349L580.74 349.529L589.84 282.671C590.085 280.866 589.908 279.028 589.325 277.302C588.742 275.577 587.767 274.009 586.478 272.722L415.601 102.568C415.293 102.261 414.906 102.046 414.483 101.947C414.06 101.848 413.618 101.869 413.206 102.008C412.794 102.146 412.429 102.396 412.151 102.731C411.874 103.065 411.695 103.47 411.635 103.9Z" fill="#0070F3"/>
<path opacity="0.1" d="M185.458 430.841C193.479 430.841 199.982 429.949 199.982 428.849C199.982 427.749 193.479 426.857 185.458 426.857C177.436 426.857 170.934 427.749 170.934 428.849C170.934 429.949 177.436 430.841 185.458 430.841Z" fill="#0070F3"/>
<path opacity="0.1" d="M129.812 436.485C137.834 436.485 144.337 435.593 144.337 434.493C144.337 433.393 137.834 432.501 129.812 432.501C121.791 432.501 115.288 433.393 115.288 434.493C115.288 435.593 121.791 436.485 129.812 436.485Z" fill="#0070F3"/>
<path opacity="0.1" d="M64.2745 428.849C72.296 428.849 78.7987 427.957 78.7987 426.857C78.7987 425.757 72.296 424.865 64.2745 424.865C56.253 424.865 49.7504 425.757 49.7504 426.857C49.7504 427.957 56.253 428.849 64.2745 428.849Z" fill="#0070F3"/>
<path opacity="0.1" d="M152.086 451.977C157.789 451.977 162.412 451.341 162.412 450.557C162.412 449.772 157.789 449.136 152.086 449.136C146.383 449.136 141.76 449.772 141.76 450.557C141.76 451.341 146.383 451.977 152.086 451.977Z" fill="#0070F3"/>
<path opacity="0.1" d="M94.3347 450.557C100.038 450.557 104.661 449.921 104.661 449.136C104.661 448.352 100.038 447.716 94.3347 447.716C88.6319 447.716 84.0088 448.352 84.0088 449.136C84.0088 449.921 88.6319 450.557 94.3347 450.557Z" fill="#0070F3"/>
<path d="M129.504 434.047C129.504 434.047 149.873 367.264 126.312 340.548C108.714 320.537 88.6847 322.95 79.7225 325.408C77.4052 326.025 75.2496 327.138 73.4048 328.67C71.56 330.202 70.0702 332.117 69.0384 334.282C65.896 341.044 66.4742 352.011 88.5841 364.813C125.614 386.251 127.914 415.657 127.914 415.657L129.504 434.047Z" fill="#0070F3"/>
<path d="M82.8964 334.847C82.8964 334.847 142.954 353.62 129.492 434.047" stroke="#565987" stroke-miterlimit="10"/>
<path d="M117.984 341.578C117.984 341.578 109.72 347.147 112.328 355.524" stroke="#565987" stroke-miterlimit="10"/>
<path d="M88.936 346.537C88.936 346.537 93.9639 341.396 100.142 344.231" stroke="#565987" stroke-miterlimit="10"/>
<path d="M112.674 372.399C112.674 372.399 121.548 367.893 123.848 373.536" stroke="#565987" stroke-miterlimit="10"/>
<path d="M134.639 381.789C134.639 381.789 127.971 381.261 127.851 384.447" stroke="#565987" stroke-miterlimit="10"/>
<path d="M130.328 434.581C130.328 434.581 106.445 386.043 99.9093 387.105C96.7983 387.608 95.3654 390.669 94.7181 393.749C93.9151 397.726 94.3675 401.855 96.0127 405.564C99.4002 413.332 108.494 428.082 130.328 434.581Z" fill="#0070F3"/>
<path d="M100.092 396.313C100.092 396.313 125.13 432.632 129.969 434.223" stroke="#565987" stroke-miterlimit="10"/>
<path d="M97.785 401.981H103.63" stroke="#565987" stroke-miterlimit="10"/>
<path d="M104.786 415.268L113.95 415.657" stroke="#565987" stroke-miterlimit="10"/>
<path d="M110.361 404.64L109.368 409.41" stroke="#565987" stroke-miterlimit="10"/>
<path d="M120.109 419.164L119.926 423.501" stroke="#565987" stroke-miterlimit="10"/>
<path d="M129.618 434.581C129.618 434.581 153.5 386.043 160.03 387.105C163.172 387.608 164.58 390.669 165.227 393.749C166.032 397.726 165.577 401.856 163.926 405.564C160.545 413.332 151.451 428.082 129.618 434.581Z" fill="#0070F3"/>
<path d="M159.854 396.313C159.854 396.313 134.809 432.632 129.969 434.223" stroke="#565987" stroke-miterlimit="10"/>
<path d="M162.154 401.981H156.309" stroke="#565987" stroke-miterlimit="10"/>
<path d="M155.153 415.268L145.989 415.657" stroke="#565987" stroke-miterlimit="10"/>
<path d="M149.578 404.64L150.571 409.41" stroke="#565987" stroke-miterlimit="10"/>
<path d="M139.837 419.164L140.013 423.501" stroke="#565987" stroke-miterlimit="10"/>
<path d="M88.647 445.912C87.9964 445.384 87.5228 444.669 87.2894 443.863C87.1849 443.46 87.2221 443.032 87.3949 442.652C87.5676 442.273 87.8653 441.964 88.2384 441.777C89.112 441.444 90.0422 442.047 90.7524 442.657C91.4625 443.266 92.2733 443.964 93.1972 443.838C92.7211 443.408 92.3649 442.862 92.1633 442.252C91.9617 441.643 91.9216 440.992 92.047 440.363C92.0853 440.101 92.1963 439.855 92.3676 439.653C92.8515 439.137 93.7251 439.357 94.3033 439.766C96.151 441.06 96.6601 443.537 96.6727 445.818C96.7758 444.984 96.7863 444.141 96.7041 443.304C96.6692 442.888 96.7363 442.47 96.8995 442.085C97.0626 441.701 97.317 441.362 97.6405 441.098C98.0791 440.865 98.5708 440.75 99.0672 440.765C99.4762 440.701 99.8942 440.723 100.294 440.832C100.693 440.94 101.066 441.131 101.386 441.394C102.09 442.148 101.908 443.405 101.292 444.234C100.611 445.009 99.8006 445.659 98.8975 446.157C98.2089 446.565 97.6221 447.124 97.1817 447.791C97.1312 447.884 97.0891 447.981 97.056 448.081H91.8648C90.6998 447.505 89.6175 446.776 88.647 445.912Z" fill="#0070F3"/>
<path d="M179.569 426.367C178.918 425.837 178.442 425.123 178.205 424.318C178.102 423.914 178.14 423.487 178.312 423.107C178.485 422.728 178.782 422.419 179.154 422.231C180.028 421.898 180.958 422.501 181.668 423.111C182.378 423.721 183.183 424.418 184.107 424.286C183.632 423.855 183.276 423.309 183.075 422.7C182.873 422.091 182.832 421.44 182.957 420.811C182.999 420.552 183.11 420.309 183.277 420.107C183.761 419.585 184.635 419.812 185.219 420.22C187.061 421.515 187.576 423.991 187.582 426.266C187.688 425.432 187.7 424.589 187.62 423.752C187.58 423.336 187.645 422.916 187.808 422.53C187.972 422.145 188.229 421.807 188.556 421.546C188.993 421.309 189.486 421.194 189.983 421.213C190.391 421.15 190.808 421.174 191.206 421.282C191.604 421.39 191.976 421.581 192.296 421.842C193 422.596 192.817 423.859 192.208 424.689C191.521 425.45 190.709 426.088 189.807 426.574C189.124 426.987 188.541 427.545 188.098 428.208C188.044 428.301 188.002 428.401 187.972 428.503H182.774C181.615 427.937 180.537 427.219 179.569 426.367Z" fill="#0070F3"/>
<path d="M149.264 445.912C148.613 445.384 148.14 444.669 147.906 443.863C147.802 443.46 147.839 443.032 148.012 442.652C148.184 442.273 148.482 441.964 148.855 441.777C149.729 441.444 150.659 442.047 151.369 442.657C152.079 443.266 152.89 443.964 153.814 443.838C153.338 443.408 152.982 442.862 152.78 442.252C152.578 441.643 152.538 440.992 152.664 440.363C152.702 440.101 152.813 439.855 152.984 439.653C153.468 439.137 154.342 439.357 154.92 439.766C156.762 441.06 157.277 443.537 157.289 445.818C157.393 444.984 157.403 444.141 157.321 443.304C157.286 442.89 157.353 442.473 157.515 442.09C157.677 441.707 157.93 441.368 158.251 441.104C158.69 440.871 159.181 440.757 159.678 440.771C160.087 440.707 160.505 440.73 160.904 440.838C161.304 440.946 161.676 441.138 161.997 441.4C162.701 442.154 162.518 443.411 161.902 444.241C161.221 445.015 160.411 445.666 159.508 446.164C158.819 446.571 158.233 447.13 157.792 447.798C157.742 447.89 157.7 447.987 157.667 448.087H152.475C151.312 447.509 150.232 446.778 149.264 445.912Z" fill="#0070F3"/>
<path d="M63.3318 406.4C63.3318 406.4 61.3836 408.945 64.2306 412.785C67.0776 416.625 69.4218 419.874 68.4728 422.269C68.4728 422.269 64.1803 415.129 60.686 415.035C57.1916 414.941 59.4856 410.692 63.3318 406.4Z" fill="#0070F3"/>
<path opacity="0.1" d="M63.3319 406.4C63.1634 406.646 63.0301 406.915 62.9359 407.198C59.5233 411.201 57.707 414.941 60.9876 415.035C64.0357 415.117 67.6998 420.578 68.5734 421.948C68.5465 422.055 68.5129 422.16 68.4728 422.263C68.4728 422.263 64.1803 415.123 60.686 415.029C57.1916 414.935 59.4856 410.692 63.3319 406.4Z" fill="black"/>
<path d="M59.7118 409.643C59.7118 410.541 59.8124 411.264 59.938 411.264C60.0637 411.264 60.1643 410.541 60.1643 409.643C60.1643 408.744 60.0386 409.171 59.9129 409.171C59.7872 409.171 59.7118 408.744 59.7118 409.643Z" fill="#FFD037"/>
<path d="M58.4737 410.711C59.2593 411.139 59.9443 411.402 60.0009 411.289C60.0574 411.176 59.473 410.749 58.6874 410.315C57.9018 409.882 58.2097 410.202 58.1531 410.315C58.0966 410.428 57.6881 410.309 58.4737 410.711Z" fill="#FFD037"/>
<path d="M73.6138 406.4C73.6138 406.4 75.5558 408.945 72.715 412.785C69.8743 416.625 67.5238 419.874 68.4728 422.269C68.4728 422.269 72.7653 415.129 76.2597 415.035C79.754 414.941 77.4538 410.692 73.6138 406.4Z" fill="#0070F3"/>
<path opacity="0.1" d="M73.6138 406.4C73.7823 406.646 73.9155 406.915 74.0097 407.198C77.4161 411.201 79.2324 414.941 75.958 415.035C72.9036 415.117 69.2458 420.578 68.366 421.948C68.395 422.055 68.4306 422.16 68.4728 422.263C68.4728 422.263 72.7653 415.123 76.2597 415.029C79.754 414.935 77.4538 410.692 73.6138 406.4Z" fill="black"/>
<path d="M77.24 409.643C77.24 410.541 77.1395 411.264 77.0201 411.264C76.9007 411.264 76.7938 410.541 76.7938 409.643C76.7938 408.744 76.9195 409.171 77.0452 409.171C77.1709 409.171 77.24 408.744 77.24 409.643Z" fill="#FFD037"/>
<path d="M78.497 410.711C77.7114 411.139 77.0264 411.402 76.9635 411.289C76.9007 411.176 77.4977 410.749 78.2833 410.315C79.0689 409.882 78.761 410.202 78.8175 410.315C78.8741 410.428 79.2575 410.309 78.497 410.711Z" fill="#FFD037"/>
<path d="M76.6116 421.936C76.6116 421.936 71.169 421.766 69.5287 420.603C67.8883 419.441 61.1573 418.039 60.7299 419.912C60.3026 421.785 52.5597 429.226 58.7 429.276C64.8402 429.327 72.9727 428.321 74.613 427.322C76.2534 426.323 76.6116 421.936 76.6116 421.936Z" fill="#A8A8A8"/>
<path opacity="0.2" d="M58.6056 428.623C64.7522 428.673 72.8847 427.668 74.5187 426.668C75.7757 425.908 76.2596 423.186 76.4042 421.93H76.6116C76.6116 421.93 76.2659 426.329 74.6319 427.316C72.9978 428.302 64.859 429.32 58.7188 429.27C56.9465 429.27 56.3306 428.642 56.362 427.693C56.6134 428.258 57.2858 428.61 58.6056 428.623Z" fill="black"/>
<path d="M108.388 209.962C108.287 212.602 110.549 216.109 110.549 216.109C111.241 217.774 119.719 225.492 119.719 225.492L126.004 229.69C124.734 230.627 123.403 231.477 122.019 232.236C118.959 233.801 117.287 238.979 117.287 238.979C117.287 238.979 112.649 250.122 122.019 251.687L122.195 251.718L123.037 252.63C125.111 254.867 127.644 257.538 128.524 258.135C130.101 259.21 134.934 267.324 134.934 267.324C134.934 267.324 140.057 275.733 146.876 276.122C153.695 276.512 153.676 268.694 153.16 268.203C152.956 267.876 152.813 267.514 152.739 267.135C154.367 269.756 156.586 273.2 157.302 273.678C158.484 274.457 162.33 280.591 162.33 280.591C162.33 280.591 167.163 291.633 167.948 292.808C168.734 293.984 170.117 299.847 170.117 299.847C170.117 299.847 172.882 307.955 174.164 309.036C175.446 310.117 176.131 314.02 176.131 314.02C176.131 314.02 180.172 319.883 180.864 320.857C181.672 322.28 182.396 323.749 183.032 325.257C183.032 325.257 185.2 328.776 185.2 330.146C185.2 331.516 189.738 333.854 189.738 333.854C189.738 333.854 192.993 337.669 194.866 338.354C196.739 339.039 198.511 343.533 198.807 343.238C198.981 343.154 199.173 343.116 199.366 343.124L200.133 343.891C203.124 346.87 209.101 352.809 210.635 354.186C212.709 356.071 217.441 356.335 221.382 355.556C223.405 355.154 225.869 353.237 227.786 351.464C228.22 351.059 228.567 350.57 228.806 350.027C229.046 349.483 229.173 348.897 229.18 348.304C229.187 347.71 229.074 347.121 228.847 346.572C228.621 346.023 228.285 345.526 227.861 345.11C225.976 343.294 223.795 341.302 222.834 340.994C221.061 340.403 216.033 336.89 213.67 333.955C212.413 332.428 210.207 330.976 208.353 329.939L208.127 329.807C207.844 328.732 207.653 327.634 207.555 326.526C207.555 326.526 210.811 319.198 209.032 318.809C207.254 318.419 200.554 306.786 200.554 306.786C200.46 297.987 192.384 290.558 192.384 290.558C192.384 290.558 188.343 280.98 187.161 278.932C186.81 278.412 186.622 277.799 186.622 277.172C186.622 276.545 186.81 275.932 187.161 275.412C187.161 275.412 184.892 273.652 184.503 272.773C184.113 271.893 182.234 265.231 182.234 265.231C182.234 265.231 179.965 261.221 179.864 259.367C179.764 257.513 175.346 252.341 175.346 252.341C175.346 252.341 173.555 243.63 171.575 242.065C171.191 241.763 171.248 240.613 171.575 238.96L171.669 238.86L171.971 238.564L172.059 238.476C172.965 237.583 173.817 236.636 174.61 235.642L174.648 235.592C174.774 235.435 174.893 235.284 175.006 235.127C177.866 231.217 179.638 221.929 179.638 221.929C179.638 221.929 180.204 221.665 180.939 221.262C181.972 220.746 182.929 220.088 183.78 219.308C183.821 219.263 183.854 219.212 183.88 219.157C183.884 219.14 183.884 219.123 183.88 219.107C183.9 219.068 183.917 219.028 183.931 218.987C183.933 218.964 183.933 218.941 183.931 218.918C183.934 218.872 183.934 218.826 183.931 218.78C183.931 218.78 183.931 218.736 183.931 218.711V218.484C183.931 218.403 183.931 218.321 183.899 218.233C183.899 218.223 183.899 218.212 183.899 218.202C183.899 218.126 183.868 218.051 183.849 217.969V217.894C183.849 217.825 183.811 217.755 183.786 217.68C183.788 217.653 183.788 217.626 183.786 217.598L183.711 217.366C183.708 217.347 183.708 217.328 183.711 217.309C183.591 216.995 183.447 216.681 183.283 216.341L183.114 216.021C182.806 215.436 182.485 214.864 182.146 214.368L182.096 214.293C182.787 212.344 184.126 208.913 185.37 207.681C187.142 205.921 184.383 196.538 184.383 196.538C184.383 196.538 183.792 189.895 183.001 187.94C182.209 185.986 183.001 185.703 182.372 184.031C181.612 182.146 181.059 182.272 182.039 177.973C182.41 176.351 182.982 174.566 183.497 172.901L184.126 173.479C187.771 176.917 193.496 181.392 193.496 181.392C193.496 181.392 204.733 191.554 205.72 191.85C206.707 192.145 209.667 202.113 209.667 202.113C209.667 202.113 208.976 218.629 218.045 219.314C221.897 219.603 223.531 216.624 224.122 213.111C224.559 210.384 224.387 207.595 223.619 204.943C222.851 202.29 221.505 199.841 219.679 197.77L214.249 191.598L209.416 183.001C206.339 178.147 203.748 173.002 201.679 167.641C199.483 162.387 196.261 157.624 192.201 153.632L191.812 153.248L192.315 152.783C192.315 152.783 191.523 146.335 190.932 145.556C190.341 144.776 188.173 140.277 188.173 139.271C188.173 138.265 186.79 138.102 186.005 136.927C186.005 136.927 184.622 134.193 183.34 133.784C183.106 133.693 182.892 133.557 182.711 133.382C180.463 131.395 177.642 130.173 174.654 129.894L173.869 129.819C172.122 129.74 170.371 129.765 168.627 129.894H168.583C167.245 129.492 166.233 128.449 165.196 127.518C163.526 126.024 161.674 124.747 159.684 123.716C157.641 122.654 155.329 121.831 153.047 122.22C151.262 122.509 149.666 123.477 147.925 123.986C145.449 124.684 142.407 124.539 140.848 126.569C140.101 127.537 139.887 128.826 139.189 129.825C138.196 131.245 136.374 131.905 135.349 133.307C134.664 134.327 134.351 135.552 134.463 136.776C134.429 137.767 134.548 138.756 134.815 139.711C135.076 140.531 135.267 141.372 135.387 142.225C135.373 142.364 135.35 142.503 135.318 142.64C135.18 143.268 134.859 143.796 134.733 144.406C134.67 144.737 134.659 145.076 134.702 145.411C134.513 146.913 135.481 148.34 136.135 149.735C136.641 150.825 136.974 151.987 137.122 153.179C135.486 153.663 133.891 154.274 132.351 155.008C130.296 156.001 128.229 157.346 127.047 159.068C125.124 161.773 122.716 164.097 119.945 165.925C119.093 168.024 118.369 170.173 117.777 172.36C117.186 174.874 116.595 179.003 114.823 181.159C113.051 183.315 112.234 189.713 112.234 189.713C112.234 189.713 109.864 193.521 109.864 194.307C109.864 195.092 109.569 198.706 109.864 199.775C110.038 200.11 110.27 200.412 110.549 200.667L110.374 201.296C109.556 204.168 108.45 208.309 108.388 209.962ZM163.97 165.937C163.92 166.157 163.863 166.365 163.794 166.566C163.794 166.365 163.826 166.17 163.838 165.969L163.97 165.937ZM141.508 249.475L141.194 249.186L141.043 249.047C141.043 248.972 141.081 248.897 141.1 248.809L141.508 249.475ZM125.168 209.472L125.294 209.24L125.759 208.397L129.53 205.318L130.013 205.758C130.013 205.758 129.618 209.862 128.637 209.667C128.411 209.623 128.31 210.566 128.285 212.043C126.507 210.522 125.149 209.472 125.149 209.472H125.168Z" fill="url(#paint0_linear)"/>
<path d="M159.2 133.344C159.2 133.344 170.934 132.289 173.724 132.578L174.485 132.647C177.396 132.943 180.137 134.161 182.309 136.122C182.49 136.295 182.704 136.429 182.938 136.518C184.195 136.902 185.533 139.598 185.533 139.598C185.533 139.598 182.554 163.159 182.554 163.449C182.554 163.738 176.395 174.409 176.395 174.409L170.431 176.722L160.143 178.174L159.854 173.737C159.854 173.737 164.806 171.022 164.253 165.409C163.7 159.797 159.2 133.344 159.2 133.344Z" fill="#464353"/>
<path d="M164.969 161.331C164.969 161.331 162.456 172.681 164.969 176.332C167.483 179.984 140.157 170.374 140.157 170.374L135.129 161.331C135.129 161.331 137.015 159.992 139.139 158.264C142.131 155.857 145.713 152.702 145.713 151.35C145.744 149.019 164.969 161.331 164.969 161.331Z" fill="#ECB4B6"/>
<path opacity="0.1" d="M164.969 161.331C164.969 161.331 162.456 172.681 164.969 176.332C167.483 179.984 140.157 170.374 140.157 170.374L135.129 161.331C135.129 161.331 137.015 159.992 139.139 158.264C142.131 155.857 145.713 152.702 145.713 151.35C145.744 149.019 164.969 161.331 164.969 161.331Z" fill="black"/>
<path opacity="0.1" d="M159.2 168.853C168.443 168.853 175.936 161.36 175.936 152.117C175.936 142.874 168.443 135.381 159.2 135.381C149.957 135.381 142.464 142.874 142.464 152.117C142.464 161.36 149.957 168.853 159.2 168.853Z" fill="black"/>
<path d="M159.2 168.08C168.443 168.08 175.936 160.587 175.936 151.344C175.936 142.101 168.443 134.608 159.2 134.608C149.957 134.608 142.464 142.101 142.464 151.344C142.464 160.587 149.957 168.08 159.2 168.08Z" fill="#ECB4B6"/>
<path d="M180.839 172.115C180.901 172.744 182.096 174.045 183.717 175.584C187.274 178.966 192.861 183.371 192.861 183.371C192.861 183.371 203.828 193.37 204.802 193.66C205.777 193.949 208.649 203.759 208.649 203.759C208.649 203.759 207.976 220.012 216.819 220.684C220.59 220.967 222.174 218.045 222.752 214.582C223.177 211.904 223.01 209.165 222.262 206.559C221.514 203.953 220.203 201.542 218.422 199.498L213.168 193.383L208.454 184.917C205.432 180.151 202.887 175.099 200.856 169.834C198.729 164.657 195.59 159.956 191.623 156.007C190.637 155.027 190.002 154.505 190.002 154.505L185.602 155.85C185.602 155.85 180.65 170.18 180.839 172.115Z" fill="#ECB4B6"/>
<path d="M197.669 341.572L199.354 343.263C202.27 346.198 208.102 352.061 209.598 353.394C211.615 355.223 216.234 355.512 220.081 354.739C222.054 354.349 224.48 352.457 226.328 350.716C226.755 350.317 227.097 349.836 227.333 349.301C227.568 348.766 227.693 348.189 227.7 347.605C227.706 347.02 227.594 346.44 227.37 345.9C227.146 345.36 226.815 344.871 226.397 344.463C224.574 342.678 222.438 340.692 221.52 340.409C219.792 339.831 214.883 336.375 212.577 333.496C211.376 331.994 209.202 330.567 207.398 329.543C205.739 328.607 204.4 328.016 204.4 328.016L197.669 341.572Z" fill="#C17174"/>
<path opacity="0.1" d="M200.045 341.572C200.045 341.572 200.604 342.144 201.472 343.011C203.954 345.525 208.913 350.478 210.189 351.628C211.904 353.18 215.845 353.425 219.1 352.772C220.571 352.476 222.324 351.213 223.808 349.906C224.259 349.511 224.623 349.027 224.877 348.485C225.131 347.942 225.27 347.353 225.285 346.754C225.3 346.155 225.19 345.559 224.963 345.005C224.736 344.45 224.396 343.949 223.965 343.533C222.544 342.169 221.024 340.818 220.326 340.585C218.855 340.095 214.67 337.148 212.721 334.697C211.459 333.331 209.971 332.193 208.322 331.334C206.914 330.536 205.777 330.033 205.777 330.033L200.045 341.572Z" fill="black"/>
<path d="M121.234 250.198C121.234 250.198 122.553 251.687 124.156 253.434C126.173 255.64 128.65 258.267 129.504 258.852C131.044 259.914 135.758 267.895 135.758 267.895C135.758 267.895 140.786 276.166 147.397 276.55C154.009 276.933 154.034 269.24 153.55 268.763C153.066 268.285 152.4 263.949 151.438 260.775C150.709 258.374 144.745 252.667 141.892 250.034C140.974 249.186 140.377 248.658 140.377 248.658L121.234 250.198Z" fill="#C17174"/>
<path opacity="0.1" d="M122.648 251.304C122.648 251.304 123.842 252.661 125.306 254.257C127.148 256.269 129.404 258.657 130.183 259.197C131.591 260.165 135.883 267.443 135.883 267.443C135.883 267.443 140.446 274.985 146.498 275.33C152.551 275.676 152.544 268.669 152.111 268.229C151.677 267.789 151.055 263.829 150.181 260.951C149.515 258.764 144.079 253.56 141.477 251.159C140.641 250.386 140.094 249.902 140.094 249.902L122.648 251.304Z" fill="black"/>
<path opacity="0.1" d="M121.234 250.198C121.234 250.198 122.553 251.687 124.156 253.434C132.603 254.691 136.531 253.277 136.531 253.277C136.531 253.277 140.471 251.542 141.339 251.448C141.559 251.448 141.716 250.876 141.892 250.034C140.974 249.186 140.377 248.658 140.377 248.658L121.234 250.198Z" fill="black"/>
<path d="M131.409 227.503C131.409 227.503 126.117 231.821 123.119 233.367C120.121 234.913 118.519 239.991 118.519 239.991C118.519 239.991 114 250.958 123.132 252.491C132.263 254.025 136.506 252.491 136.506 252.491C136.506 252.491 140.446 250.763 141.314 250.669C142.181 250.575 142.175 242.298 145.348 239.796C148.522 237.295 155.831 231.626 155.831 231.626L131.409 227.503Z" fill="#5E5A6B"/>
<path opacity="0.1" d="M131.409 227.503C131.409 227.503 126.117 231.821 123.119 233.367C120.121 234.913 118.519 239.991 118.519 239.991C118.519 239.991 114 250.958 123.132 252.491C132.263 254.025 136.506 252.491 136.506 252.491C136.506 252.491 140.446 250.763 141.314 250.669C142.181 250.575 142.175 242.298 145.348 239.796C148.522 237.295 155.831 231.626 155.831 231.626L131.409 227.503Z" fill="black"/>
<path d="M180.832 214.324C180.832 214.324 184.603 219.459 183.434 220.69C182.265 221.922 179.399 223.267 179.399 223.267C179.399 223.267 177.665 232.405 174.874 236.252C172.084 240.098 166.61 244.334 166.61 244.334L170.45 222.884L180.832 214.324Z" fill="#5E5A6B"/>
<path opacity="0.1" d="M166.616 244.334C168.327 242.982 169.968 241.543 171.531 240.022C172.746 238.859 173.865 237.598 174.874 236.252C177.665 232.405 179.399 223.267 179.399 223.267C179.399 223.267 182.284 221.922 183.434 220.69C184.138 219.943 183.026 217.762 182.045 216.159C181.417 215.116 180.839 214.324 180.839 214.324L175.39 218.811L170.45 222.884L168.998 231.192L166.616 244.334Z" fill="black"/>
<path opacity="0.1" d="M197.669 341.572L199.354 343.263C200.416 343.263 201.999 343.395 201.999 343.395C201.999 343.395 209.786 334.062 208.536 332.428C207.97 331.546 207.583 330.562 207.398 329.53C205.739 328.594 204.4 328.003 204.4 328.003L197.669 341.572Z" fill="black"/>
<path d="M138.234 243.083C138.234 244.717 151.313 264.722 151.313 264.722C151.313 264.722 156.41 273.376 157.566 274.149C158.722 274.922 162.468 280.974 162.468 280.974C162.468 280.974 167.182 291.841 167.955 292.997C168.728 294.153 170.066 299.91 170.066 299.91C170.066 299.91 172.763 307.892 174.013 308.948C175.264 310.004 175.936 313.856 175.936 313.856C175.936 313.856 179.877 319.626 180.549 320.587C181.339 321.986 182.046 323.43 182.667 324.911C182.667 324.911 184.785 328.374 184.785 329.725C184.785 331.077 189.185 333.377 189.185 333.377C189.185 333.377 192.327 337.148 194.181 337.776C196.035 338.405 197.745 342.873 198.027 342.584C198.31 342.295 201.591 342.584 201.591 342.584C201.591 342.584 209.378 333.257 208.127 331.623C206.876 329.989 206.587 326.137 206.587 326.137C206.587 326.137 209.73 318.928 208.033 318.545C206.336 318.161 199.794 306.748 199.794 306.748C199.699 298.094 191.812 290.785 191.812 290.785C191.812 290.785 187.865 281.358 186.715 279.34C186.371 278.828 186.187 278.225 186.187 277.609C186.187 276.992 186.371 276.389 186.715 275.877C186.715 275.877 184.503 274.149 184.119 273.282C183.736 272.414 181.907 265.878 181.907 265.878C181.907 265.878 179.695 261.931 179.594 260.102C179.494 258.273 175.195 253.189 175.195 253.189C175.195 253.189 173.448 244.623 171.525 243.083C171.147 242.781 171.21 241.656 171.525 240.022C172.411 235.717 175.233 227.937 177.181 222.84C178.293 219.924 179.117 217.881 179.117 217.881L175.396 218.811L143.721 226.73C143.721 226.73 142.005 231.337 140.497 235.68C139.296 239.099 138.234 242.36 138.234 243.083Z" fill="#5E5A6B"/>
<path opacity="0.1" d="M199.693 321.85C199.693 321.85 209.598 318.004 204.721 322.906C199.844 327.808 190.492 327.526 190.492 327.526L199.693 321.85Z" fill="black"/>
<path opacity="0.1" d="M182.762 302.21C182.762 302.21 177.187 305.29 178.243 308.269C179.299 311.248 182.762 302.21 182.762 302.21Z" fill="black"/>
<path opacity="0.1" d="M177.168 278.378C176.63 279.344 175.828 280.137 174.857 280.664C173.886 281.191 172.784 281.432 171.682 281.357C167.666 281.263 177.168 278.378 177.168 278.378Z" fill="black"/>
<path opacity="0.1" d="M124.866 235.592C124.866 235.592 126.984 242.134 124.866 242.612C122.748 243.089 124.866 235.592 124.866 235.592Z" fill="black"/>
<path opacity="0.1" d="M180.839 172.115C180.901 172.744 182.095 174.045 183.717 175.585C184.635 172.631 185.489 169.928 184.974 169.036C184.207 167.691 187.211 164.806 186.671 162.883C186.256 161.412 189.876 157.685 191.598 156.02C190.611 155.04 189.977 154.518 189.977 154.518L185.577 155.863C185.577 155.863 180.65 170.18 180.839 172.115Z" fill="black"/>
<path opacity="0.1" d="M140.49 235.68C144.142 235.479 152.658 232.839 152.658 232.839C152.658 232.839 162.531 232.512 168.998 231.192C172.14 230.564 174.428 229.665 174.428 228.477C174.428 226.887 175.729 224.757 177.206 222.821C178.216 221.542 179.294 220.319 180.436 219.157C181.037 218.542 181.494 217.801 181.775 216.989C181.863 216.731 181.97 216.442 182.077 216.14C181.448 215.097 180.87 214.305 180.87 214.305L175.421 218.792L143.746 226.711C143.746 226.711 141.973 231.337 140.49 235.68Z" fill="black"/>
<path d="M129.963 229.426C129.963 229.426 137.078 233.656 139.196 234.423C141.314 235.189 152.658 231.683 152.658 231.683C152.658 231.683 174.397 230.966 174.397 227.283C174.397 224.461 178.519 219.924 180.405 218.001C181.007 217.384 181.464 216.641 181.744 215.826C182.403 213.941 183.736 210.44 184.974 209.202C186.709 207.474 184.012 198.241 184.012 198.241C184.012 198.241 183.434 191.699 182.667 189.776C181.901 187.852 182.667 187.57 182.039 185.929C181.297 184.088 180.782 184.195 181.718 179.965C182.655 175.735 184.987 170.349 184.232 168.998C183.478 167.647 186.47 164.768 185.929 162.845C185.389 160.922 191.73 155.153 191.73 155.153C191.73 155.153 190.938 148.862 190.366 148.057C189.794 147.253 187.676 142.866 187.676 141.904C187.676 140.943 186.325 140.748 185.558 139.598C184.792 138.448 175.911 169.413 175.911 169.413L162.971 172.329L162.254 172.486C162.254 172.486 154.895 172.832 150.119 170.18C150.119 170.18 141.867 168.835 139.17 155.178C137.108 155.695 135.104 156.42 133.187 157.34C131.182 158.314 129.171 159.64 128.015 161.331C126.149 163.99 123.805 166.279 121.102 168.08C120.27 170.146 119.563 172.259 118.984 174.409C118.412 176.923 117.834 180.952 116.099 183.07C114.364 185.188 113.585 191.529 113.585 191.529L130.925 207.31C130.925 207.31 130.541 211.351 129.58 211.156C128.618 210.962 129.963 229.426 129.963 229.426Z" fill="#464353"/>
<path opacity="0.1" d="M133.212 158.106L142.464 177.394C142.464 177.394 146.31 179.908 147.661 178.545C149.012 177.181 154.103 177.2 154.103 177.2L154.776 178.545L164.523 176.244L162.996 173.102L162.28 173.265C162.28 173.265 154.92 173.611 150.144 170.959C150.144 170.959 141.892 169.608 139.196 155.951C137.134 156.466 135.129 157.189 133.212 158.106Z" fill="black"/>
<path d="M133.212 157.34L142.464 176.621C142.464 176.621 146.31 179.135 147.661 177.778C149.012 176.42 154.103 176.433 154.103 176.433L154.776 177.778L164.523 175.471L162.996 172.329L162.28 172.486C162.28 172.486 154.92 172.832 150.144 170.18C150.144 170.18 141.892 168.835 139.196 155.178C137.134 155.695 135.129 156.42 133.212 157.34Z" fill="#464353"/>
<path opacity="0.1" d="M137.272 213.457C137.272 213.457 157.685 219.88 159.2 220.69C160.715 221.501 137.367 215.669 137.272 213.457Z" fill="black"/>
<path opacity="0.1" d="M150.144 223.267C150.144 223.267 144.776 226.252 142.853 225.19C140.93 224.128 150.144 223.267 150.144 223.267Z" fill="black"/>
<path opacity="0.1" d="M166.993 187.595C166.993 187.595 172.159 215.191 164.523 223.267L166.993 187.595Z" fill="black"/>
<path opacity="0.1" d="M175.484 146.046C176.439 145.016 176.987 143.674 177.025 142.27C177.064 140.866 176.589 139.496 175.691 138.416C175.025 137.662 174.152 137.09 173.605 136.242C173.325 135.65 172.984 135.09 172.587 134.57C171.594 133.552 169.922 133.822 168.558 133.407C167.194 132.992 166.27 131.987 165.259 131.076C163.634 129.596 161.829 128.329 159.885 127.305C157.887 126.261 155.63 125.47 153.405 125.834C151.665 126.123 150.112 127.091 148.409 127.575C145.996 128.26 143.023 128.122 141.496 130.12C140.773 131.069 140.566 132.333 139.881 133.319C138.913 134.715 137.134 135.368 136.11 136.744C134.985 138.297 135.104 140.427 135.588 142.281C135.909 143.482 136.361 144.714 136.078 145.92C135.94 146.511 135.632 147.058 135.513 147.655C135.198 149.213 136.204 150.69 136.876 152.136C137.6 153.7 137.957 155.409 137.92 157.132C137.873 157.519 137.927 157.911 138.077 158.27C138.267 158.558 138.529 158.792 138.837 158.949L141.728 160.771C141.864 160.868 142.018 160.936 142.181 160.972C142.746 161.06 143.092 160.413 143.438 159.979C144.406 158.823 146.247 158.911 147.611 159.565C148.975 160.218 150.093 161.293 151.463 161.915C154.675 163.379 158.377 162.078 161.852 161.406C163.042 161.235 164.217 160.97 165.365 160.614C166.448 160.175 167.48 159.621 168.445 158.961C169.423 158.411 170.311 157.713 171.078 156.894C171.494 156.442 171.791 155.895 171.944 155.3C172.096 154.706 172.099 154.083 171.952 153.487C171.669 152.475 170.764 151.564 170.946 150.439C171.311 148.491 174.221 147.328 175.484 146.046Z" fill="black"/>
<path d="M175.484 145.279C176.44 144.249 176.988 142.905 177.026 141.5C177.064 140.095 176.59 138.724 175.691 137.643C175.025 136.895 174.152 136.317 173.605 135.475C173.323 134.882 172.982 134.32 172.587 133.797C171.594 132.785 169.922 133.055 168.558 132.641C167.194 132.226 166.27 131.214 165.259 130.303C163.636 128.821 161.83 127.553 159.885 126.532C157.887 125.488 155.63 124.697 153.405 125.061C151.665 125.35 150.112 126.318 148.409 126.802C145.996 127.487 143.023 127.342 141.496 129.316C140.773 130.271 140.566 131.534 139.881 132.521C138.913 133.916 137.134 134.57 136.11 135.946C134.985 137.499 135.104 139.629 135.588 141.483C135.909 142.677 136.361 143.915 136.078 145.122C135.94 145.713 135.632 146.26 135.513 146.857C135.198 148.415 136.204 149.892 136.876 151.331C137.622 152.916 137.99 154.652 137.951 156.403C137.904 156.792 137.958 157.186 138.108 157.547C138.302 157.832 138.563 158.066 138.869 158.226L141.76 160.042C141.895 160.141 142.049 160.211 142.212 160.25C142.778 160.331 143.124 159.69 143.469 159.25C144.437 158.094 146.278 158.188 147.642 158.836C149.006 159.483 150.125 160.564 151.495 161.186C154.706 162.65 158.408 161.349 161.884 160.683C163.073 160.507 164.248 160.24 165.397 159.885C166.479 159.448 167.512 158.896 168.476 158.238C169.455 157.686 170.343 156.986 171.11 156.164C171.525 155.714 171.823 155.168 171.975 154.575C172.128 153.981 172.13 153.359 171.983 152.764C171.7 151.746 170.795 150.835 170.978 149.716C171.311 147.718 174.221 146.555 175.484 145.279Z" fill="#965301"/>
<path d="M109.864 211.439C109.764 214.035 111.976 217.498 111.976 217.498C112.649 219.132 120.919 226.73 120.919 226.73L127.462 231.129C127.462 231.129 136.217 236.516 138.284 237.477C139.321 237.961 140.434 239.991 141.295 241.977C142.156 243.963 142.753 245.748 142.753 245.748C144.648 245.469 146.396 244.567 147.72 243.182C149.044 241.798 149.868 240.011 150.062 238.106C150.307 235.629 150.47 233.405 150.257 233.361C149.773 233.266 144.387 229.225 144.387 229.225C144.387 229.225 138.14 225.184 136.116 221.149C134.092 217.114 126.211 210.955 126.211 210.955L126.337 210.723L126.789 209.893L127.751 206.719L112.667 199.988C112.667 199.988 112.297 201.214 111.819 202.892C111.002 205.72 109.921 209.824 109.864 211.439Z" fill="#ECB4B6"/>
<path opacity="0.1" d="M111.806 202.911C114.656 205.717 117.704 208.315 120.926 210.685C121.862 211.232 125.143 210.892 126.343 210.742L126.796 209.912L127.757 206.738L112.674 200.007C112.674 200.007 112.278 201.22 111.806 202.911Z" fill="black"/>
<path d="M126.789 191.24C126.789 191.24 134.482 195.859 134.099 197.877C133.715 199.894 130.453 206.87 130.453 206.87L126.789 209.899C126.789 209.899 122.076 210.572 120.919 209.899C119.763 209.227 111.593 202.496 111.304 201.44C111.015 200.384 111.304 196.821 111.304 196.054C111.304 195.287 113.61 191.529 113.61 191.529L116.979 185.571L126.789 191.24Z" fill="#464353"/>
<path opacity="0.1" d="M152.658 232.82L154.92 238.897L151.105 242.505L150.929 243.592L142.464 248.463L139.774 241.669L152.658 232.82Z" fill="black"/>
<path d="M152.658 232.437L154.92 238.508L151.105 242.122L150.929 243.209L142.464 248.08L139.774 241.286L152.658 232.437Z" fill="#5E5A6B"/>
<g opacity="0.1">
<path opacity="0.1" d="M171.122 149.239C170.989 148.893 170.946 148.519 170.997 148.151C171.311 146.184 174.221 145.009 175.484 143.752C176.308 142.894 176.831 141.791 176.973 140.61C177.095 141.456 177.024 142.318 176.766 143.133C176.508 143.948 176.07 144.695 175.484 145.317C174.321 146.455 171.77 147.535 171.122 149.239Z" fill="black"/>
<path opacity="0.1" d="M135.582 146.775C135.916 147.841 136.36 148.869 136.908 149.842C137.634 151.406 137.993 153.115 137.957 154.838C137.908 155.226 137.96 155.62 138.108 155.982C138.302 156.268 138.563 156.501 138.869 156.661L141.76 158.477C141.896 158.579 142.052 158.65 142.219 158.685C142.778 158.766 143.124 158.125 143.476 157.692C144.443 156.535 146.291 156.623 147.649 157.271C149.006 157.918 150.131 158.999 151.501 159.627C154.719 161.085 158.414 159.791 161.89 159.118C163.08 158.945 164.255 158.678 165.403 158.32C166.486 157.884 167.519 157.332 168.483 156.674C169.464 156.121 170.354 155.422 171.122 154.6C171.553 154.098 171.859 153.501 172.015 152.859C172.136 153.437 172.119 154.036 171.964 154.607C171.809 155.177 171.52 155.702 171.122 156.139C170.352 156.96 169.462 157.659 168.483 158.213C167.519 158.872 166.486 159.424 165.403 159.86C164.254 160.215 163.08 160.482 161.89 160.658C158.421 161.324 154.719 162.625 151.501 161.161C150.131 160.532 148.987 159.464 147.649 158.81C146.31 158.157 144.443 158.069 143.476 159.225C143.111 159.665 142.765 160.306 142.219 160.224C142.053 160.187 141.897 160.116 141.76 160.017L138.869 158.201C138.566 158.037 138.305 157.805 138.108 157.522C137.96 157.16 137.908 156.766 137.957 156.378C137.993 154.654 137.634 152.945 136.908 151.382C136.235 149.943 135.23 148.466 135.544 146.907C135.554 146.862 135.566 146.818 135.582 146.775Z" fill="black"/>
<path opacity="0.1" d="M135.626 139.994C135.934 141.163 136.374 142.376 136.129 143.557C136.015 142.878 135.802 142.2 135.626 141.534C135.325 140.476 135.218 139.373 135.312 138.278C135.368 138.858 135.473 139.432 135.626 139.994Z" fill="black"/>
</g>
<path opacity="0.1" d="M13.594 97.2634C21.1018 97.2634 27.188 91.1772 27.188 83.6694C27.188 76.1617 21.1018 70.0754 13.594 70.0754C6.08624 70.0754 0 76.1617 0 83.6694C0 91.1772 6.08624 97.2634 13.594 97.2634Z" fill="#0070F3"/>
<path opacity="0.1" d="M382.58 39.9838C390.088 39.9838 396.174 33.8976 396.174 26.3898C396.174 18.8821 390.088 12.7958 382.58 12.7958C375.073 12.7958 368.986 18.8821 368.986 26.3898C368.986 33.8976 375.073 39.9838 382.58 39.9838Z" fill="#0070F3"/>
<path opacity="0.1" d="M598.243 93.6874C605.751 93.6874 611.837 87.6011 611.837 80.0934C611.837 72.5856 605.751 66.4994 598.243 66.4994C590.735 66.4994 584.649 72.5856 584.649 80.0934C584.649 87.6011 590.735 93.6874 598.243 93.6874Z" fill="#0070F3"/>
<path opacity="0.1" d="M40.7757 181.448C53.3581 181.448 63.5581 171.248 63.5581 158.666C63.5581 146.083 53.3581 135.883 40.7757 135.883C28.1934 135.883 17.9933 146.083 17.9933 158.666C17.9933 171.248 28.1934 181.448 40.7757 181.448Z" fill="#0070F3"/>
<path opacity="0.1" d="M319.041 518.948C331.623 518.948 341.823 508.748 341.823 496.165C341.823 483.583 331.623 473.383 319.041 473.383C306.459 473.383 296.259 483.583 296.259 496.165C296.259 508.748 306.459 518.948 319.041 518.948Z" fill="#0070F3"/>
<path opacity="0.1" d="M622.54 505.813C635.122 505.813 645.322 495.613 645.322 483.03C645.322 470.448 635.122 460.248 622.54 460.248C609.958 460.248 599.758 470.448 599.758 483.03C599.758 495.613 609.958 505.813 622.54 505.813Z" fill="#0070F3"/>
</g>
<defs>
<linearGradient id="paint0_linear" x1="168.778" y1="355.989" x2="168.778" y2="122.114" gradientUnits="userSpaceOnUse">
<stop stop-color="#808080" stop-opacity="0.25"/>
<stop offset="0.54" stop-color="#808080" stop-opacity="0.12"/>
<stop offset="1" stop-color="#808080" stop-opacity="0.1"/>
</linearGradient>
<clipPath id="clip0">
<rect width="700" height="518.941" fill="white"/>
</clipPath>
</defs>
</svg>
