<svg width="26" height="26" viewBox="0 0 26 26" fill="none" xmlns="http://www.w3.org/2000/svg">
<path fill-rule="evenodd" clip-rule="evenodd" d="M13.25 9.25C13.25 6.78179 14.2756 4.48096 16.0498 2.83456L17.8967 1.12059L15.4146 0.686951C14.7043 0.562856 13.9809 0.5 13.25 0.5C6.34644 0.5 0.75 6.09644 0.75 13C0.75 19.9036 6.34644 25.5 13.25 25.5C17.4817 25.5 21.3553 23.3798 23.6583 19.9244L25.0539 17.8303L22.542 17.9835C22.3622 17.9945 22.1815 18 22 18C17.1675 18 13.25 14.0825 13.25 9.25ZM13.25 23C7.72715 23 3.25 18.5229 3.25 13C3.25 7.68489 7.39669 3.33829 12.6314 3.01882C11.4209 4.83561 10.75 6.9898 10.75 9.25001C10.75 14.7988 14.7671 19.4093 20.0518 20.3319C18.2348 22.0192 15.8262 23 13.25 23Z" fill="#EEEEEE"/>
</svg>
