<svg width="30" height="30" viewBox="0 0 30 30" fill="none" xmlns="http://www.w3.org/2000/svg">
<path fill-rule="evenodd" clip-rule="evenodd" d="M16.25 6.33861C15.8417 6.28022 15.4244 6.25 15 6.25C14.5756 6.25 14.1583 6.28022 13.75 6.33861V1.30605C14.1617 1.26895 14.5786 1.25 15 1.25C15.4214 1.25 15.8383 1.26895 16.25 1.30605V6.33861ZM8.75 15C8.75 18.4518 11.5482 21.25 15 21.25C18.4518 21.25 21.25 18.4518 21.25 15C21.25 11.5482 18.4518 8.75 15 8.75C11.5482 8.75 8.75 11.5482 8.75 15ZM18.75 15C18.75 17.0711 17.0711 18.75 15 18.75C12.9289 18.75 11.25 17.0711 11.25 15C11.25 12.9289 12.9289 11.25 15 11.25C17.0711 11.25 18.75 12.9289 18.75 15ZM16.25 28.6939V23.6614C15.8417 23.7198 15.4244 23.75 15 23.75C14.5756 23.75 14.1583 23.7198 13.75 23.6614V28.6939C14.1617 28.731 14.5786 28.75 15 28.75C15.4214 28.75 15.8383 28.731 16.25 28.6939ZM23.6614 13.75H28.6939C28.731 14.1617 28.75 14.5786 28.75 15C28.75 15.4214 28.731 15.8383 28.6939 16.25H23.6614C23.7198 15.8417 23.75 15.4244 23.75 15C23.75 14.5756 23.7198 14.1583 23.6614 13.75ZM6.25 15C6.25 14.5756 6.28022 14.1583 6.33861 13.75H1.30605C1.26895 14.1617 1.25 14.5786 1.25 15C1.25 15.4214 1.26895 15.8383 1.30605 16.25H6.33861C6.28022 15.8417 6.25 15.4244 6.25 15ZM20.2402 7.99202L23.7988 4.43341C24.4401 4.968 25.032 5.55988 25.5666 6.20118L22.008 9.75978C21.5061 9.08966 20.9103 8.49391 20.2402 7.99202ZM4.43342 6.20118L7.99202 9.75978C8.49391 9.08966 9.08967 8.49391 9.75979 7.99202L6.20119 4.43341C5.55989 4.968 4.96801 5.55988 4.43342 6.20118ZM22.008 20.2402L25.5666 23.7988C25.032 24.4401 24.4401 25.032 23.7988 25.5666L20.2402 22.008C20.9103 21.5061 21.5061 20.9103 22.008 20.2402ZM6.20119 25.5666L9.75979 22.008C9.08967 21.5061 8.49391 20.9103 7.99202 20.2402L4.43342 23.7988C4.96801 24.4401 5.55989 25.032 6.20119 25.5666Z" fill="black"/>
</svg>
